  0
SECTION
  2
HEADER
  9
$ANGBASE
  50
0.0
  9
$ANGDIR
  70
1
  9
$MEASUREMENT
  70
0
  0
ENDSEC
  0
SECTION
  2
TABLES
  0
TABLE
  2
LTYPE
  70
4
  0
LTYPE
  5
40F
  2
CONTINUOUS
  70
0
  3
Solid line
  72
65
  73
0
  40
0.0
  0
LTYPE
  5
410
  2
DASHDOT
 70
0
  3
Dash Dot ____ _ ____ _
 72
65
 73
4
 40
2.0
 49
1.25
 49
-0.25
 49
0.25
 49
-0.25
  0
LTYPE
  5
411
  2
DASHED
 70
0
  3
Dashed __ __ __ __ __
 72
65
 73
2
 40
0.75
 49
0.5
 49
-0.25
  0
LTYPE
  5
43B
  2
DOTTED
 70
0
  3
Dotted .  .  .  .
 72
65
 73
2
 40
0.2
 49
0.0
 49
-0.2
  0
ENDTAB
  0
TABLE
  2
STYLE
  70
4
  0
STYLE
  2
KICAD
  70
0
  40
0
  41
1
  42
1
  50
0
  71
0
  3
isocp.shx
  0
STYLE
  2
KICADB
  70
0
  40
0
  41
1
  42
1
  50
0
  71
0
  3
isocp.shx
  0
STYLE
  2
KICADI
  70
0
  40
0
  41
1
  42
1
  50
15
  71
0
  3
isocp.shx
  0
STYLE
  2
KICADBI
  70
0
  40
0
  41
1
  42
1
  50
15
  71
0
  3
isocp.shx
  0
ENDTAB
  0
TABLE
  2
LAYER
  70
1
  0
LAYER
  2
BLACK
  70
0
  62
7
  6
CONTINUOUS
  0
ENDTAB
  0
ENDSEC
  0
SECTION
  2
ENTITIES
0
LINE
8
BLACK
6
CONTINUOUS
10
0.4459370472440945
20
2.575577755905512
11
0.4471666535433071
21
2.5739753543307087
0
LINE
8
BLACK
6
CONTINUOUS
10
0.4471666535433071
20
2.5739753543307087
11
0.4470785039370079
21
2.5719574803149605
0
LINE
8
BLACK
6
CONTINUOUS
10
0.4470785039370079
20
2.5719574803149605
11
0.4457139763779527
21
2.5704683070866143
0
LINE
8
BLACK
6
CONTINUOUS
10
0.4457139763779527
20
2.5704683070866143
11
0.4120669291338583
21
2.5529527559055119
0
LINE
8
BLACK
6
CONTINUOUS
10
0.4120669291338583
20
2.5529527559055119
11
2.7879330708661416
21
2.5529527559055119
0
LINE
8
BLACK
6
CONTINUOUS
10
2.7879330708661416
20
2.5529527559055119
11
2.754286023622047
21
2.5704683070866143
0
LINE
8
BLACK
6
CONTINUOUS
10
2.754286023622047
20
2.5704683070866143
11
2.7534724409448819
21
2.5710925984251967
0
LINE
8
BLACK
6
CONTINUOUS
10
2.7534724409448819
20
2.5710925984251967
11
2.7526994881889761
21
2.572958661417323
0
LINE
8
BLACK
6
CONTINUOUS
10
2.7526994881889761
20
2.572958661417323
11
2.7533068503937006
21
2.5748850000000001
0
LINE
8
BLACK
6
CONTINUOUS
10
2.7533068503937006
20
2.5748850000000001
11
2.7550103543307087
21
2.5759701968503936
0
LINE
8
BLACK
6
CONTINUOUS
10
2.7550103543307087
20
2.5759701968503936
11
2.7570128740157478
21
2.5757065748031494
0
LINE
8
BLACK
6
CONTINUOUS
10
2.7570128740157478
20
2.5757065748031494
11
2.7970472440944882
21
2.5548660236220471
0
LINE
8
BLACK
6
CONTINUOUS
10
2.7970472440944882
20
2.5548660236220471
11
2.7970472440944882
21
2.5730874015748033
0
LINE
8
BLACK
6
CONTINUOUS
10
2.7970472440944882
20
2.5730874015748033
11
2.7972253149606296
21
2.5740973228346458
0
LINE
8
BLACK
6
CONTINUOUS
10
2.7972253149606296
20
2.5740973228346458
11
2.7985236220472443
21
2.5756445669291339
0
LINE
8
BLACK
6
CONTINUOUS
10
2.7985236220472443
20
2.5756445669291339
11
2.8005127559055119
21
2.5759953149606298
0
LINE
8
BLACK
6
CONTINUOUS
10
2.8005127559055119
20
2.5759953149606298
11
2.8022619291338584
21
2.5749853937007874
0
LINE
8
BLACK
6
CONTINUOUS
10
2.8022619291338584
20
2.5749853937007874
11
2.8029527559055119
21
2.5730874015748033
0
LINE
8
BLACK
6
CONTINUOUS
10
2.8029527559055119
20
2.5730874015748033
11
2.8029527559055119
21
2.2196850393700789
0
LINE
8
BLACK
6
CONTINUOUS
10
2.8029527559055119
20
2.2196850393700789
11
2.80277468503937
21
2.218675118110236
0
LINE
8
BLACK
6
CONTINUOUS
10
2.80277468503937
20
2.218675118110236
11
2.8014763779527558
21
2.2171278740157478
0
LINE
8
BLACK
6
CONTINUOUS
10
2.8014763779527558
20
2.2171278740157478
11
2.7994872440944882
21
2.2167771259842519
0
LINE
8
BLACK
6
CONTINUOUS
10
2.7994872440944882
20
2.2167771259842519
11
2.7977380708661417
21
2.2177870472440944
0
LINE
8
BLACK
6
CONTINUOUS
10
2.7977380708661417
20
2.2177870472440944
11
2.7970472440944882
21
2.2196850393700789
0
LINE
8
BLACK
6
CONTINUOUS
10
2.7970472440944882
20
2.2196850393700789
11
2.7970472440944882
21
2.5451340157480313
0
LINE
8
BLACK
6
CONTINUOUS
10
2.7970472440944882
20
2.5451340157480313
11
2.7570128740157478
21
2.5242934251968503
0
LINE
8
BLACK
6
CONTINUOUS
10
2.7570128740157478
20
2.5242934251968503
11
2.7560348425196848
21
2.5239850393700789
0
LINE
8
BLACK
6
CONTINUOUS
10
2.7560348425196848
20
2.5239850393700789
11
2.7540629133858268
21
2.5244222440944881
0
LINE
8
BLACK
6
CONTINUOUS
10
2.7540629133858268
20
2.5244222440944881
11
2.752833346456693
21
2.5260246456692914
0
LINE
8
BLACK
6
CONTINUOUS
10
2.752833346456693
20
2.5260246456692914
11
2.7529214566929134
21
2.5280425196850391
0
LINE
8
BLACK
6
CONTINUOUS
10
2.7529214566929134
20
2.5280425196850391
11
2.754286023622047
21
2.5295316929133858
0
LINE
8
BLACK
6
CONTINUOUS
10
2.754286023622047
20
2.5295316929133858
11
2.7879330708661416
21
2.5470472440944882
0
LINE
8
BLACK
6
CONTINUOUS
10
2.7879330708661416
20
2.5470472440944882
11
0.4120669291338583
21
2.5470472440944882
0
LINE
8
BLACK
6
CONTINUOUS
10
0.4120669291338583
20
2.5470472440944882
11
0.4457139763779527
21
2.5295316929133858
0
LINE
8
BLACK
6
CONTINUOUS
10
0.4457139763779527
20
2.5295316929133858
11
0.4465275590551181
21
2.528907401574803
0
LINE
8
BLACK
6
CONTINUOUS
10
0.4465275590551181
20
2.528907401574803
11
0.4473004724409449
21
2.5270413779527559
0
LINE
8
BLACK
6
CONTINUOUS
10
0.4473004724409449
20
2.5270413779527559
11
0.4466931102362204
21
2.5251150393700788
0
LINE
8
BLACK
6
CONTINUOUS
10
0.4466931102362204
20
2.5251150393700788
11
0.4449896456692913
21
2.5240298031496065
0
LINE
8
BLACK
6
CONTINUOUS
10
0.4449896456692913
20
2.5240298031496065
11
0.4429871259842519
21
2.5242934251968503
0
LINE
8
BLACK
6
CONTINUOUS
10
0.4429871259842519
20
2.5242934251968503
11
0.4029527559055118
21
2.5451340157480313
0
LINE
8
BLACK
6
CONTINUOUS
10
0.4029527559055118
20
2.5451340157480313
11
0.4029527559055118
21
2.2196850393700789
0
LINE
8
BLACK
6
CONTINUOUS
10
0.4029527559055118
20
2.2196850393700789
11
0.4027746850393701
21
2.218675118110236
0
LINE
8
BLACK
6
CONTINUOUS
10
0.4027746850393701
20
2.218675118110236
11
0.4014763779527559
21
2.2171278740157478
0
LINE
8
BLACK
6
CONTINUOUS
10
0.4014763779527559
20
2.2171278740157478
11
0.3994872440944882
21
2.2167771259842519
0
LINE
8
BLACK
6
CONTINUOUS
10
0.3994872440944882
20
2.2167771259842519
11
0.3977380708661417
21
2.2177870472440944
0
LINE
8
BLACK
6
CONTINUOUS
10
0.3977380708661417
20
2.2177870472440944
11
0.3970472440944882
21
2.2196850393700789
0
LINE
8
BLACK
6
CONTINUOUS
10
0.3970472440944882
20
2.2196850393700789
11
0.3970472440944882
21
2.5730874015748033
0
LINE
8
BLACK
6
CONTINUOUS
10
0.3970472440944882
20
2.5730874015748033
11
0.3972253149606299
21
2.5740973228346458
0
LINE
8
BLACK
6
CONTINUOUS
10
0.3972253149606299
20
2.5740973228346458
11
0.3985236220472441
21
2.5756445669291339
0
LINE
8
BLACK
6
CONTINUOUS
10
0.3985236220472441
20
2.5756445669291339
11
0.4005127559055118
21
2.5759953149606298
0
LINE
8
BLACK
6
CONTINUOUS
10
0.4005127559055118
20
2.5759953149606298
11
0.4022619291338583
21
2.5749853937007874
0
LINE
8
BLACK
6
CONTINUOUS
10
0.4022619291338583
20
2.5749853937007874
11
0.4029527559055118
21
2.5730874015748033
0
LINE
8
BLACK
6
CONTINUOUS
10
0.4029527559055118
20
2.5730874015748033
11
0.4029527559055118
21
2.5548660236220471
0
LINE
8
BLACK
6
CONTINUOUS
10
0.4029527559055118
20
2.5548660236220471
11
0.4429871259842519
21
2.5757065748031494
0
LINE
8
BLACK
6
CONTINUOUS
10
0.4429871259842519
20
2.5757065748031494
11
0.443965157480315
21
2.5760149212598424
0
LINE
8
BLACK
6
CONTINUOUS
10
0.443965157480315
20
2.5760149212598424
11
0.4459370472440945
21
2.575577755905512
0
LINE
8
BLACK
6
CONTINUOUS
10
1.4379053149606298
20
2.6195140944881889
11
1.4394525590551182
21
2.6182157874015748
0
LINE
8
BLACK
6
CONTINUOUS
10
1.4394525590551182
20
2.6182157874015748
11
1.4398033070866141
21
2.6162266535433072
0
LINE
8
BLACK
6
CONTINUOUS
10
1.4398033070866141
20
2.6162266535433072
11
1.4387933858267716
21
2.6144774803149606
0
LINE
8
BLACK
6
CONTINUOUS
10
1.4387933858267716
20
2.6144774803149606
11
1.4368953937007873
21
2.6137866535433072
0
LINE
8
BLACK
6
CONTINUOUS
10
1.4368953937007873
20
2.6137866535433072
11
1.4300933858267717
21
2.6137866535433072
0
LINE
8
BLACK
6
CONTINUOUS
10
1.4300933858267717
20
2.6137866535433072
11
1.4273959055118111
21
2.6124379133858269
0
LINE
8
BLACK
6
CONTINUOUS
10
1.4273959055118111
20
2.6124379133858269
11
1.4260666929133858
21
2.6111087401574804
0
LINE
8
BLACK
6
CONTINUOUS
10
1.4260666929133858
20
2.6111087401574804
11
1.4227630708661416
21
2.6061532677165355
0
LINE
8
BLACK
6
CONTINUOUS
10
1.4227630708661416
20
2.6061532677165355
11
1.422033779527559
21
2.6032360629921261
0
LINE
8
BLACK
6
CONTINUOUS
10
1.422033779527559
20
2.6032360629921261
11
1.4243262992125985
21
2.6043823228346454
0
LINE
8
BLACK
6
CONTINUOUS
10
1.4243262992125985
20
2.6043823228346454
11
1.4253092125984252
21
2.6046746850393698
0
LINE
8
BLACK
6
CONTINUOUS
10
1.4253092125984252
20
2.6046746850393698
11
1.4254809055118109
21
2.6046337007874016
0
LINE
8
BLACK
6
CONTINUOUS
10
1.4254809055118109
20
2.6046337007874016
11
1.425646811023622
21
2.6046940551181104
0
LINE
8
BLACK
6
CONTINUOUS
10
1.425646811023622
20
2.6046940551181104
11
1.4331458661417322
21
2.6046940551181104
0
LINE
8
BLACK
6
CONTINUOUS
10
1.4331458661417322
20
2.6046940551181104
11
1.4341557874015747
21
2.6045159842519685
0
LINE
8
BLACK
6
CONTINUOUS
10
1.4341557874015747
20
2.6045159842519685
11
1.4342910236220472
21
2.6044025196850393
0
LINE
8
BLACK
6
CONTINUOUS
10
1.4342910236220472
20
2.6044025196850393
11
1.4344663779527558
21
2.6043823228346454
0
LINE
8
BLACK
6
CONTINUOUS
10
1.4344663779527558
20
2.6043823228346454
11
1.4382159055118109
21
2.6025075590551179
0
LINE
8
BLACK
6
CONTINUOUS
10
1.4382159055118109
20
2.6025075590551179
11
1.4389249606299213
21
2.6019816535433069
0
LINE
8
BLACK
6
CONTINUOUS
10
1.4389249606299213
20
2.6019816535433069
11
1.438983307086614
21
2.6019544488188977
0
LINE
8
BLACK
6
CONTINUOUS
10
1.438983307086614
20
2.6019544488188977
11
1.4408580708661416
21
2.6000796850393701
0
LINE
8
BLACK
6
CONTINUOUS
10
1.4408580708661416
20
2.6000796850393701
11
1.4413643307086614
21
2.5993566141732285
0
LINE
8
BLACK
6
CONTINUOUS
10
1.4413643307086614
20
2.5993566141732285
11
1.4414111811023622
21
2.5993122834645668
0
LINE
8
BLACK
6
CONTINUOUS
10
1.4414111811023622
20
2.5993122834645668
11
1.4432859448818898
21
2.5955627559055117
0
LINE
8
BLACK
6
CONTINUOUS
10
1.4432859448818898
20
2.5955627559055117
11
1.4435783070866142
21
2.5945798425196851
0
LINE
8
BLACK
6
CONTINUOUS
10
1.4435783070866142
20
2.5945798425196851
11
1.443537283464567
21
2.594408149606299
0
LINE
8
BLACK
6
CONTINUOUS
10
1.443537283464567
20
2.594408149606299
11
1.4435976771653543
21
2.5942422440944881
0
LINE
8
BLACK
6
CONTINUOUS
10
1.4435976771653543
20
2.5942422440944881
11
1.4435976771653543
21
2.5848684251968503
0
LINE
8
BLACK
6
CONTINUOUS
10
1.4435976771653543
20
2.5848684251968503
11
1.4434196062992126
21
2.5838585039370079
0
LINE
8
BLACK
6
CONTINUOUS
10
1.4434196062992126
20
2.5838585039370079
11
1.4433061023622047
21
2.5837232677165352
0
LINE
8
BLACK
6
CONTINUOUS
10
1.4433061023622047
20
2.5837232677165352
11
1.4432859448818898
21
2.5835479133858268
0
LINE
8
BLACK
6
CONTINUOUS
10
1.4432859448818898
20
2.5835479133858268
11
1.4414111811023622
21
2.5797983858267717
0
LINE
8
BLACK
6
CONTINUOUS
10
1.4414111811023622
20
2.5797983858267717
11
1.4408852362204725
21
2.5790893307086615
0
LINE
8
BLACK
6
CONTINUOUS
10
1.4408852362204725
20
2.5790893307086615
11
1.4408580708661416
21
2.5790309842519683
0
LINE
8
BLACK
6
CONTINUOUS
10
1.4408580708661416
20
2.5790309842519683
11
1.4389833464566928
21
2.5771562204724408
0
LINE
8
BLACK
6
CONTINUOUS
10
1.4389833464566928
20
2.5771562204724408
11
1.4382601574803149
21
2.5766498425196849
0
LINE
8
BLACK
6
CONTINUOUS
10
1.4382601574803149
20
2.5766498425196849
11
1.4382159055118109
21
2.5766030708661418
0
LINE
8
BLACK
6
CONTINUOUS
10
1.4382159055118109
20
2.5766030708661418
11
1.4344663779527558
21
2.5747283070866143
0
LINE
8
BLACK
6
CONTINUOUS
10
1.4344663779527558
20
2.5747283070866143
11
1.4334834251968505
21
2.5744359448818899
0
LINE
8
BLACK
6
CONTINUOUS
10
1.4334834251968505
20
2.5744359448818899
11
1.4333117322834645
21
2.5744769685039368
0
LINE
8
BLACK
6
CONTINUOUS
10
1.4333117322834645
20
2.5744769685039368
11
1.4331458661417322
21
2.5744165748031493
0
LINE
8
BLACK
6
CONTINUOUS
10
1.4331458661417322
20
2.5744165748031493
11
1.425646811023622
21
2.5744165748031493
0
LINE
8
BLACK
6
CONTINUOUS
10
1.425646811023622
20
2.5744165748031493
11
1.4246368897637796
21
2.5745946456692912
0
LINE
8
BLACK
6
CONTINUOUS
10
1.4246368897637796
20
2.5745946456692912
11
1.4245016141732283
21
2.5747081496062991
0
LINE
8
BLACK
6
CONTINUOUS
10
1.4245016141732283
20
2.5747081496062991
11
1.4243262992125985
21
2.5747283070866143
0
LINE
8
BLACK
6
CONTINUOUS
10
1.4243262992125985
20
2.5747283070866143
11
1.4205767716535433
21
2.5766030708661418
0
LINE
8
BLACK
6
CONTINUOUS
10
1.4205767716535433
20
2.5766030708661418
11
1.4198676377952755
21
2.5771290551181103
0
LINE
8
BLACK
6
CONTINUOUS
10
1.4198676377952755
20
2.5771290551181103
11
1.4198093307086614
21
2.5771562204724408
0
LINE
8
BLACK
6
CONTINUOUS
10
1.4198093307086614
20
2.5771562204724408
11
1.4179345669291339
21
2.5790310236220471
0
LINE
8
BLACK
6
CONTINUOUS
10
1.4179345669291339
20
2.5790310236220471
11
1.4174282677165353
21
2.5797540944881887
0
LINE
8
BLACK
6
CONTINUOUS
10
1.4174282677165353
20
2.5797540944881887
11
1.417381496062992
21
2.5797983858267717
0
LINE
8
BLACK
6
CONTINUOUS
10
1.417381496062992
20
2.5797983858267717
11
1.4155067322834645
21
2.5835479133858268
0
LINE
8
BLACK
6
CONTINUOUS
10
1.4155067322834645
20
2.5835479133858268
11
1.4152143700787401
21
2.5845308661417321
0
LINE
8
BLACK
6
CONTINUOUS
10
1.4152143700787401
20
2.5845308661417321
11
1.4152553543307087
21
2.5847025590551183
0
LINE
8
BLACK
6
CONTINUOUS
10
1.4152553543307087
20
2.5847025590551183
11
1.415195
21
2.5848684251968503
0
LINE
8
BLACK
6
CONTINUOUS
10
1.415195
20
2.5848684251968503
11
1.415195
21
2.5998665354330708
0
LINE
8
BLACK
6
CONTINUOUS
10
1.415195
20
2.5998665354330708
11
1.4152973228346457
21
2.6004469291338581
0
LINE
8
BLACK
6
CONTINUOUS
10
1.4152973228346457
20
2.6004469291338581
11
1.4152831496062992
21
2.6005826771653542
0
LINE
8
BLACK
6
CONTINUOUS
10
1.4152831496062992
20
2.6005826771653542
11
1.4171579133858268
21
2.6080817322834644
0
LINE
8
BLACK
6
CONTINUOUS
10
1.4171579133858268
20
2.6080817322834644
11
1.4175616141732283
21
2.6089869291338581
0
LINE
8
BLACK
6
CONTINUOUS
10
1.4175616141732283
20
2.6089869291338581
11
1.4175656692913385
21
2.6090035039370076
0
LINE
8
BLACK
6
CONTINUOUS
10
1.4175656692913385
20
2.6090035039370076
11
1.4213151968503936
21
2.6146277952755903
0
LINE
8
BLACK
6
CONTINUOUS
10
1.4213151968503936
20
2.6146277952755903
11
1.4216259842519685
21
2.614953188976378
0
LINE
8
BLACK
6
CONTINUOUS
10
1.4216259842519685
20
2.614953188976378
11
1.4216841338582678
21
2.6150777952755906
0
LINE
8
BLACK
6
CONTINUOUS
10
1.4216841338582678
20
2.6150777952755906
11
1.4235588976377953
21
2.6169525590551181
0
LINE
8
BLACK
6
CONTINUOUS
10
1.4235588976377953
20
2.6169525590551181
11
1.424281968503937
21
2.6174588582677165
0
LINE
8
BLACK
6
CONTINUOUS
10
1.424281968503937
20
2.6174588582677165
11
1.4243262992125985
21
2.6175056692913383
0
LINE
8
BLACK
6
CONTINUOUS
10
1.4243262992125985
20
2.6175056692913383
11
1.4280758267716536
21
2.6193804330708659
0
LINE
8
BLACK
6
CONTINUOUS
10
1.4280758267716536
20
2.6193804330708659
11
1.4290587401574804
21
2.6196727952755903
0
LINE
8
BLACK
6
CONTINUOUS
10
1.4290587401574804
20
2.6196727952755903
11
1.4292304330708661
21
2.6196318110236221
0
LINE
8
BLACK
6
CONTINUOUS
10
1.4292304330708661
20
2.6196318110236221
11
1.4293963385826771
21
2.6196921653543308
0
LINE
8
BLACK
6
CONTINUOUS
10
1.4293963385826771
20
2.6196921653543308
11
1.4368953937007873
21
2.6196921653543308
0
LINE
8
BLACK
6
CONTINUOUS
10
1.4368953937007873
20
2.6196921653543308
11
1.4379053149606298
21
2.6195140944881889
0
LINE
8
BLACK
6
CONTINUOUS
10
1.4236463779527559
20
2.5974398031496064
11
1.4224492519685039
21
2.5962426771653542
0
LINE
8
BLACK
6
CONTINUOUS
10
1.4224492519685039
20
2.5962426771653542
11
1.4211005118110236
21
2.5935451968503935
0
LINE
8
BLACK
6
CONTINUOUS
10
1.4211005118110236
20
2.5935451968503935
11
1.4211005118110236
21
2.5855654724409449
0
LINE
8
BLACK
6
CONTINUOUS
10
1.4211005118110236
20
2.5855654724409449
11
1.4224492519685039
21
2.5828679921259843
0
LINE
8
BLACK
6
CONTINUOUS
10
1.4224492519685039
20
2.5828679921259843
11
1.4236463779527559
21
2.5816708267716533
0
LINE
8
BLACK
6
CONTINUOUS
10
1.4236463779527559
20
2.5816708267716533
11
1.4263438582677166
21
2.5803220866141729
0
LINE
8
BLACK
6
CONTINUOUS
10
1.4263438582677166
20
2.5803220866141729
11
1.4324488188976379
21
2.5803220866141729
0
LINE
8
BLACK
6
CONTINUOUS
10
1.4324488188976379
20
2.5803220866141729
11
1.4351462598425198
21
2.5816708267716533
0
LINE
8
BLACK
6
CONTINUOUS
10
1.4351462598425198
20
2.5816708267716533
11
1.4363433858267716
21
2.5828679921259843
0
LINE
8
BLACK
6
CONTINUOUS
10
1.4363433858267716
20
2.5828679921259843
11
1.4376921653543306
21
2.5855654724409449
0
LINE
8
BLACK
6
CONTINUOUS
10
1.4376921653543306
20
2.5855654724409449
11
1.4376921653543306
21
2.5935451968503935
0
LINE
8
BLACK
6
CONTINUOUS
10
1.4376921653543306
20
2.5935451968503935
11
1.4363434251968503
21
2.5962426771653542
0
LINE
8
BLACK
6
CONTINUOUS
10
1.4363434251968503
20
2.5962426771653542
11
1.4351462992125983
21
2.5974398031496064
0
LINE
8
BLACK
6
CONTINUOUS
10
1.4351462992125983
20
2.5974398031496064
11
1.4324488188976379
21
2.5987885433070868
0
LINE
8
BLACK
6
CONTINUOUS
10
1.4324488188976379
20
2.5987885433070868
11
1.4263438582677166
21
2.5987885433070868
0
LINE
8
BLACK
6
CONTINUOUS
10
1.4263438582677166
20
2.5987885433070868
11
1.4236463779527559
21
2.5974398031496064
0
LINE
8
BLACK
6
CONTINUOUS
10
1.4697763385826772
20
2.6195140944881889
11
1.4699115748031495
21
2.6194006299212598
0
LINE
8
BLACK
6
CONTINUOUS
10
1.4699115748031495
20
2.6194006299212598
11
1.4700869291338583
21
2.6193804330708659
0
LINE
8
BLACK
6
CONTINUOUS
10
1.4700869291338583
20
2.6193804330708659
11
1.4738364566929134
21
2.6175056692913383
0
LINE
8
BLACK
6
CONTINUOUS
10
1.4738364566929134
20
2.6175056692913383
11
1.4745455118110236
21
2.6169797637795273
0
LINE
8
BLACK
6
CONTINUOUS
10
1.4745455118110236
20
2.6169797637795273
11
1.4746038582677166
21
2.6169525590551181
0
LINE
8
BLACK
6
CONTINUOUS
10
1.4746038582677166
20
2.6169525590551181
11
1.4764786220472441
21
2.6150777952755906
0
LINE
8
BLACK
6
CONTINUOUS
10
1.4764786220472441
20
2.6150777952755906
11
1.4769848818897637
21
2.6143547244094489
0
LINE
8
BLACK
6
CONTINUOUS
10
1.4769848818897637
20
2.6143547244094489
11
1.4770317322834645
21
2.6143103937007872
0
LINE
8
BLACK
6
CONTINUOUS
10
1.4770317322834645
20
2.6143103937007872
11
1.4789064960629921
21
2.6105608661417321
0
LINE
8
BLACK
6
CONTINUOUS
10
1.4789064960629921
20
2.6105608661417321
11
1.4790517716535432
21
2.6100724409448817
0
LINE
8
BLACK
6
CONTINUOUS
10
1.4790517716535432
20
2.6100724409448817
11
1.4791300787401573
21
2.609956496062992
0
LINE
8
BLACK
6
CONTINUOUS
10
1.4791300787401573
20
2.609956496062992
11
1.4810048425196851
21
2.6024574409448817
0
LINE
8
BLACK
6
CONTINUOUS
10
1.4810048425196851
20
2.6024574409448817
11
1.4810462992125983
21
2.6018695669291336
0
LINE
8
BLACK
6
CONTINUOUS
10
1.4810462992125983
20
2.6018695669291336
11
1.4810929921259841
21
2.6017412992125983
0
LINE
8
BLACK
6
CONTINUOUS
10
1.4810929921259841
20
2.6017412992125983
11
1.4810929921259841
21
2.5923674803149606
0
LINE
8
BLACK
6
CONTINUOUS
10
1.4810929921259841
20
2.5923674803149606
11
1.4809906299212598
21
2.591787125984252
0
LINE
8
BLACK
6
CONTINUOUS
10
1.4809906299212598
20
2.591787125984252
11
1.4810048425196851
21
2.5916513385826772
0
LINE
8
BLACK
6
CONTINUOUS
10
1.4810048425196851
20
2.5916513385826772
11
1.4791300787401573
21
2.5841522834645669
0
LINE
8
BLACK
6
CONTINUOUS
10
1.4791300787401573
20
2.5841522834645669
11
1.4789224803149605
21
2.5836868503937009
0
LINE
8
BLACK
6
CONTINUOUS
10
1.4789224803149605
20
2.5836868503937009
11
1.4789064960629921
21
2.5835479133858268
0
LINE
8
BLACK
6
CONTINUOUS
10
1.4789064960629921
20
2.5835479133858268
11
1.4770317322834645
21
2.5797983858267717
0
LINE
8
BLACK
6
CONTINUOUS
10
1.4770317322834645
20
2.5797983858267717
11
1.4765057874015748
21
2.5790893307086615
0
LINE
8
BLACK
6
CONTINUOUS
10
1.4765057874015748
20
2.5790893307086615
11
1.4764786220472441
21
2.5790309842519683
0
LINE
8
BLACK
6
CONTINUOUS
10
1.4764786220472441
20
2.5790309842519683
11
1.4746038976377953
21
2.5771562204724408
0
LINE
8
BLACK
6
CONTINUOUS
10
1.4746038976377953
20
2.5771562204724408
11
1.4738807086614172
21
2.5766498425196849
0
LINE
8
BLACK
6
CONTINUOUS
10
1.4738807086614172
20
2.5766498425196849
11
1.4738364566929134
21
2.5766030708661418
0
LINE
8
BLACK
6
CONTINUOUS
10
1.4738364566929134
20
2.5766030708661418
11
1.4700869291338583
21
2.5747283070866143
0
LINE
8
BLACK
6
CONTINUOUS
10
1.4700869291338583
20
2.5747283070866143
11
1.4691039763779528
21
2.5744359448818899
0
LINE
8
BLACK
6
CONTINUOUS
10
1.4691039763779528
20
2.5744359448818899
11
1.4689322834645668
21
2.5744769685039368
0
LINE
8
BLACK
6
CONTINUOUS
10
1.4689322834645668
20
2.5744769685039368
11
1.4687664173228345
21
2.5744165748031493
0
LINE
8
BLACK
6
CONTINUOUS
10
1.4687664173228345
20
2.5744165748031493
11
1.4650168897637794
21
2.5744165748031493
0
LINE
8
BLACK
6
CONTINUOUS
10
1.4650168897637794
20
2.5744165748031493
11
1.464006968503937
21
2.5745946456692912
0
LINE
8
BLACK
6
CONTINUOUS
10
1.464006968503937
20
2.5745946456692912
11
1.4638716929133857
21
2.5747081496062991
0
LINE
8
BLACK
6
CONTINUOUS
10
1.4638716929133857
20
2.5747081496062991
11
1.4636963779527559
21
2.5747283070866143
0
LINE
8
BLACK
6
CONTINUOUS
10
1.4636963779527559
20
2.5747283070866143
11
1.4599468503937008
21
2.5766030708661418
0
LINE
8
BLACK
6
CONTINUOUS
10
1.4599468503937008
20
2.5766030708661418
11
1.4592377165354331
21
2.5771290551181103
0
LINE
8
BLACK
6
CONTINUOUS
10
1.4592377165354331
20
2.5771290551181103
11
1.4591794094488189
21
2.5771562204724408
0
LINE
8
BLACK
6
CONTINUOUS
10
1.4591794094488189
20
2.5771562204724408
11
1.4573046456692913
21
2.5790310236220471
0
LINE
8
BLACK
6
CONTINUOUS
10
1.4573046456692913
20
2.5790310236220471
11
1.4567983464566929
21
2.5797540944881887
0
LINE
8
BLACK
6
CONTINUOUS
10
1.4567983464566929
20
2.5797540944881887
11
1.4567515748031497
21
2.5797983858267717
0
LINE
8
BLACK
6
CONTINUOUS
10
1.4567515748031497
20
2.5797983858267717
11
1.4548768110236221
21
2.5835479133858268
0
LINE
8
BLACK
6
CONTINUOUS
10
1.4548768110236221
20
2.5835479133858268
11
1.454731496062992
21
2.584036377952756
0
LINE
8
BLACK
6
CONTINUOUS
10
1.454731496062992
20
2.584036377952756
11
1.4546532283464566
21
2.5841522834645669
0
LINE
8
BLACK
6
CONTINUOUS
10
1.4546532283464566
20
2.5841522834645669
11
1.4527784645669291
21
2.5916513385826772
0
LINE
8
BLACK
6
CONTINUOUS
10
1.4527784645669291
20
2.5916513385826772
11
1.4527369685039371
21
2.592239251968504
0
LINE
8
BLACK
6
CONTINUOUS
10
1.4527369685039371
20
2.592239251968504
11
1.4526903149606298
21
2.5923674803149606
0
LINE
8
BLACK
6
CONTINUOUS
10
1.4526903149606298
20
2.5923674803149606
11
1.4526903149606298
21
2.6017412992125983
0
LINE
8
BLACK
6
CONTINUOUS
10
1.4526903149606298
20
2.6017412992125983
11
1.4527926377952756
21
2.6023216929133857
0
LINE
8
BLACK
6
CONTINUOUS
10
1.4527926377952756
20
2.6023216929133857
11
1.4527784645669291
21
2.6024574409448817
0
LINE
8
BLACK
6
CONTINUOUS
10
1.4527784645669291
20
2.6024574409448817
11
1.4546532283464566
21
2.609956496062992
0
LINE
8
BLACK
6
CONTINUOUS
10
1.4546532283464566
20
2.609956496062992
11
1.4548607874015749
21
2.6104219685039372
0
LINE
8
BLACK
6
CONTINUOUS
10
1.4548607874015749
20
2.6104219685039372
11
1.4548768110236221
21
2.6105608661417321
0
LINE
8
BLACK
6
CONTINUOUS
10
1.4548768110236221
20
2.6105608661417321
11
1.4567515748031497
21
2.6143103937007872
0
LINE
8
BLACK
6
CONTINUOUS
10
1.4567515748031497
20
2.6143103937007872
11
1.4572774803149606
21
2.6150194881889761
0
LINE
8
BLACK
6
CONTINUOUS
10
1.4572774803149606
20
2.6150194881889761
11
1.4573046850393701
21
2.6150777952755906
0
LINE
8
BLACK
6
CONTINUOUS
10
1.4573046850393701
20
2.6150777952755906
11
1.4591794488188976
21
2.6169525590551181
0
LINE
8
BLACK
6
CONTINUOUS
10
1.4591794488188976
20
2.6169525590551181
11
1.4599025196850393
21
2.6174588582677165
0
LINE
8
BLACK
6
CONTINUOUS
10
1.4599025196850393
20
2.6174588582677165
11
1.4599468503937008
21
2.6175056692913383
0
LINE
8
BLACK
6
CONTINUOUS
10
1.4599468503937008
20
2.6175056692913383
11
1.4636963779527559
21
2.6193804330708659
0
LINE
8
BLACK
6
CONTINUOUS
10
1.4636963779527559
20
2.6193804330708659
11
1.4646792913385827
21
2.6196727952755903
0
LINE
8
BLACK
6
CONTINUOUS
10
1.4646792913385827
20
2.6196727952755903
11
1.4648509842519686
21
2.6196318110236221
0
LINE
8
BLACK
6
CONTINUOUS
10
1.4648509842519686
20
2.6196318110236221
11
1.4650168897637794
21
2.6196921653543308
0
LINE
8
BLACK
6
CONTINUOUS
10
1.4650168897637794
20
2.6196921653543308
11
1.4687664173228345
21
2.6196921653543308
0
LINE
8
BLACK
6
CONTINUOUS
10
1.4687664173228345
20
2.6196921653543308
11
1.4697763385826772
21
2.6195140944881889
0
LINE
8
BLACK
6
CONTINUOUS
10
1.4630164566929134
20
2.6124379133858269
11
1.4618193307086613
21
2.6112407874015746
0
LINE
8
BLACK
6
CONTINUOUS
10
1.4618193307086613
20
2.6112407874015746
11
1.4603038188976378
21
2.6082098031496064
0
LINE
8
BLACK
6
CONTINUOUS
10
1.4603038188976378
20
2.6082098031496064
11
1.4585958267716534
21
2.6013777559055118
0
LINE
8
BLACK
6
CONTINUOUS
10
1.4585958267716534
20
2.6013777559055118
11
1.4585958267716534
21
2.5927310236220471
0
LINE
8
BLACK
6
CONTINUOUS
10
1.4585958267716534
20
2.5927310236220471
11
1.4603038188976378
21
2.5858989763779525
0
LINE
8
BLACK
6
CONTINUOUS
10
1.4603038188976378
20
2.5858989763779525
11
1.4618193307086613
21
2.5828679921259843
0
LINE
8
BLACK
6
CONTINUOUS
10
1.4618193307086613
20
2.5828679921259843
11
1.4630164566929134
21
2.5816708267716533
0
LINE
8
BLACK
6
CONTINUOUS
10
1.4630164566929134
20
2.5816708267716533
11
1.465713937007874
21
2.5803220866141729
0
LINE
8
BLACK
6
CONTINUOUS
10
1.465713937007874
20
2.5803220866141729
11
1.4680693700787402
21
2.5803220866141729
0
LINE
8
BLACK
6
CONTINUOUS
10
1.4680693700787402
20
2.5803220866141729
11
1.4707668110236221
21
2.5816708267716533
0
LINE
8
BLACK
6
CONTINUOUS
10
1.4707668110236221
20
2.5816708267716533
11
1.4719639370078741
21
2.5828679921259843
0
LINE
8
BLACK
6
CONTINUOUS
10
1.4719639370078741
20
2.5828679921259843
11
1.4734794488188976
21
2.5858989763779525
0
LINE
8
BLACK
6
CONTINUOUS
10
1.4734794488188976
20
2.5858989763779525
11
1.4751874803149605
21
2.5927310236220471
0
LINE
8
BLACK
6
CONTINUOUS
10
1.4751874803149605
20
2.5927310236220471
11
1.4751874803149605
21
2.6013777559055118
0
LINE
8
BLACK
6
CONTINUOUS
10
1.4751874803149605
20
2.6013777559055118
11
1.4734794488188976
21
2.6082098031496064
0
LINE
8
BLACK
6
CONTINUOUS
10
1.4734794488188976
20
2.6082098031496064
11
1.4719639763779526
21
2.6112407874015746
0
LINE
8
BLACK
6
CONTINUOUS
10
1.4719639763779526
20
2.6112407874015746
11
1.4707668503937008
21
2.6124379133858269
0
LINE
8
BLACK
6
CONTINUOUS
10
1.4707668503937008
20
2.6124379133858269
11
1.4680693700787402
21
2.6137866535433072
0
LINE
8
BLACK
6
CONTINUOUS
10
1.4680693700787402
20
2.6137866535433072
11
1.465713937007874
21
2.6137866535433072
0
LINE
8
BLACK
6
CONTINUOUS
10
1.465713937007874
20
2.6137866535433072
11
1.4630164566929134
21
2.6124379133858269
0
LINE
8
BLACK
6
CONTINUOUS
10
1.5278940551181102
20
2.6195140944881889
11
1.5280292913385827
21
2.6194006299212598
0
LINE
8
BLACK
6
CONTINUOUS
10
1.5280292913385827
20
2.6194006299212598
11
1.5282046456692913
21
2.6193804330708659
0
LINE
8
BLACK
6
CONTINUOUS
10
1.5282046456692913
20
2.6193804330708659
11
1.5319541732283464
21
2.6175056692913383
0
LINE
8
BLACK
6
CONTINUOUS
10
1.5319541732283464
20
2.6175056692913383
11
1.5326632283464567
21
2.6169797637795273
0
LINE
8
BLACK
6
CONTINUOUS
10
1.5326632283464567
20
2.6169797637795273
11
1.5327215748031495
21
2.6169525590551181
0
LINE
8
BLACK
6
CONTINUOUS
10
1.5327215748031495
20
2.6169525590551181
11
1.5345963385826771
21
2.6150777952755906
0
LINE
8
BLACK
6
CONTINUOUS
10
1.5345963385826771
20
2.6150777952755906
11
1.5351025984251969
21
2.6143547244094489
0
LINE
8
BLACK
6
CONTINUOUS
10
1.5351025984251969
20
2.6143547244094489
11
1.5351494488188977
21
2.6143103937007872
0
LINE
8
BLACK
6
CONTINUOUS
10
1.5351494488188977
20
2.6143103937007872
11
1.5370242125984253
21
2.6105608661417321
0
LINE
8
BLACK
6
CONTINUOUS
10
1.5370242125984253
20
2.6105608661417321
11
1.5373165748031496
21
2.6095779527559055
0
LINE
8
BLACK
6
CONTINUOUS
10
1.5373165748031496
20
2.6095779527559055
11
1.5372755511811023
21
2.6094062598425198
0
LINE
8
BLACK
6
CONTINUOUS
10
1.5372755511811023
20
2.6094062598425198
11
1.5373359448818897
21
2.6092403543307086
0
LINE
8
BLACK
6
CONTINUOUS
10
1.5373359448818897
20
2.6092403543307086
11
1.5373359448818897
21
2.5942422440944881
0
LINE
8
BLACK
6
CONTINUOUS
10
1.5373359448818897
20
2.5942422440944881
11
1.5372335826771653
21
2.5936618897637795
0
LINE
8
BLACK
6
CONTINUOUS
10
1.5372335826771653
20
2.5936618897637795
11
1.5372477952755905
21
2.5935261023622047
0
LINE
8
BLACK
6
CONTINUOUS
10
1.5372477952755905
20
2.5935261023622047
11
1.535373031496063
21
2.5860270472440945
0
LINE
8
BLACK
6
CONTINUOUS
10
1.535373031496063
20
2.5860270472440945
11
1.5349692913385826
21
2.5851218503937008
0
LINE
8
BLACK
6
CONTINUOUS
10
1.5349692913385826
20
2.5851218503937008
11
1.5349652755905512
21
2.58510531496063
0
LINE
8
BLACK
6
CONTINUOUS
10
1.5349652755905512
20
2.58510531496063
11
1.5312157480314961
21
2.5794809842519686
0
LINE
8
BLACK
6
CONTINUOUS
10
1.5312157480314961
20
2.5794809842519686
11
1.5309049212598425
21
2.5791556692913384
0
LINE
8
BLACK
6
CONTINUOUS
10
1.5309049212598425
20
2.5791556692913384
11
1.530846811023622
21
2.5790309842519683
0
LINE
8
BLACK
6
CONTINUOUS
10
1.530846811023622
20
2.5790309842519683
11
1.5289720866141732
21
2.5771562204724408
0
LINE
8
BLACK
6
CONTINUOUS
10
1.5289720866141732
20
2.5771562204724408
11
1.5282488976377953
21
2.5766498425196849
0
LINE
8
BLACK
6
CONTINUOUS
10
1.5282488976377953
20
2.5766498425196849
11
1.5282046456692913
21
2.5766030708661418
0
LINE
8
BLACK
6
CONTINUOUS
10
1.5282046456692913
20
2.5766030708661418
11
1.5244551181102362
21
2.5747283070866143
0
LINE
8
BLACK
6
CONTINUOUS
10
1.5244551181102362
20
2.5747283070866143
11
1.5234721653543306
21
2.5744359448818899
0
LINE
8
BLACK
6
CONTINUOUS
10
1.5234721653543306
20
2.5744359448818899
11
1.5233004724409449
21
2.5744769685039368
0
LINE
8
BLACK
6
CONTINUOUS
10
1.5233004724409449
20
2.5744769685039368
11
1.5231346062992126
21
2.5744165748031493
0
LINE
8
BLACK
6
CONTINUOUS
10
1.5231346062992126
20
2.5744165748031493
11
1.5156355511811024
21
2.5744165748031493
0
LINE
8
BLACK
6
CONTINUOUS
10
1.5156355511811024
20
2.5744165748031493
11
1.5146256299212597
21
2.5745946456692912
0
LINE
8
BLACK
6
CONTINUOUS
10
1.5146256299212597
20
2.5745946456692912
11
1.5130783858267716
21
2.5758929527559054
0
LINE
8
BLACK
6
CONTINUOUS
10
1.5130783858267716
20
2.5758929527559054
11
1.5127276377952756
21
2.577882086614173
0
LINE
8
BLACK
6
CONTINUOUS
10
1.5127276377952756
20
2.577882086614173
11
1.5137375590551181
21
2.5796312598425195
0
LINE
8
BLACK
6
CONTINUOUS
10
1.5137375590551181
20
2.5796312598425195
11
1.5156355511811024
21
2.5803220866141729
0
LINE
8
BLACK
6
CONTINUOUS
10
1.5156355511811024
20
2.5803220866141729
11
1.522437559055118
21
2.5803220866141729
0
LINE
8
BLACK
6
CONTINUOUS
10
1.522437559055118
20
2.5803220866141729
11
1.5251349999999999
21
2.5816708267716533
0
LINE
8
BLACK
6
CONTINUOUS
10
1.5251349999999999
20
2.5816708267716533
11
1.5264641338582676
21
2.5829999999999997
0
LINE
8
BLACK
6
CONTINUOUS
10
1.5264641338582676
20
2.5829999999999997
11
1.5297678740157481
21
2.5879555511811021
0
LINE
8
BLACK
6
CONTINUOUS
10
1.5297678740157481
20
2.5879555511811021
11
1.5304971653543307
21
2.5908727165354328
0
LINE
8
BLACK
6
CONTINUOUS
10
1.5304971653543307
20
2.5908727165354328
11
1.5282046456692913
21
2.5897264566929135
0
LINE
8
BLACK
6
CONTINUOUS
10
1.5282046456692913
20
2.5897264566929135
11
1.5272216929133857
21
2.5894340944881891
0
LINE
8
BLACK
6
CONTINUOUS
10
1.5272216929133857
20
2.5894340944881891
11
1.52705
21
2.589475118110236
0
LINE
8
BLACK
6
CONTINUOUS
10
1.52705
20
2.589475118110236
11
1.5268841338582677
21
2.589414724409449
0
LINE
8
BLACK
6
CONTINUOUS
10
1.5268841338582677
20
2.589414724409449
11
1.5193850787401575
21
2.589414724409449
0
LINE
8
BLACK
6
CONTINUOUS
10
1.5193850787401575
20
2.589414724409449
11
1.5183751574803148
21
2.5895927952755904
0
LINE
8
BLACK
6
CONTINUOUS
10
1.5183751574803148
20
2.5895927952755904
11
1.5182398818897638
21
2.5897062992125983
0
LINE
8
BLACK
6
CONTINUOUS
10
1.5182398818897638
20
2.5897062992125983
11
1.5180645669291337
21
2.5897264566929135
0
LINE
8
BLACK
6
CONTINUOUS
10
1.5180645669291337
20
2.5897264566929135
11
1.5143150393700786
21
2.591601220472441
0
LINE
8
BLACK
6
CONTINUOUS
10
1.5143150393700786
20
2.591601220472441
11
1.5136059448818897
21
2.592127125984252
0
LINE
8
BLACK
6
CONTINUOUS
10
1.5136059448818897
20
2.592127125984252
11
1.5135476377952755
21
2.5921543307086612
0
LINE
8
BLACK
6
CONTINUOUS
10
1.5135476377952755
20
2.5921543307086612
11
1.5116728740157479
21
2.5940290944881887
0
LINE
8
BLACK
6
CONTINUOUS
10
1.5116728740157479
20
2.5940290944881887
11
1.5111665748031495
21
2.5947522047244096
0
LINE
8
BLACK
6
CONTINUOUS
10
1.5111665748031495
20
2.5947522047244096
11
1.5111197637795275
21
2.5947964960629921
0
LINE
8
BLACK
6
CONTINUOUS
10
1.5111197637795275
20
2.5947964960629921
11
1.5092449999999999
21
2.5985460236220472
0
LINE
8
BLACK
6
CONTINUOUS
10
1.5092449999999999
20
2.5985460236220472
11
1.5089526377952756
21
2.5995289763779525
0
LINE
8
BLACK
6
CONTINUOUS
10
1.5089526377952756
20
2.5995289763779525
11
1.508993622047244
21
2.5997006692913387
0
LINE
8
BLACK
6
CONTINUOUS
10
1.508993622047244
20
2.5997006692913387
11
1.5089332677165355
21
2.5998665354330708
0
LINE
8
BLACK
6
CONTINUOUS
10
1.5089332677165355
20
2.5998665354330708
11
1.5089332677165355
21
2.6092403543307086
0
LINE
8
BLACK
6
CONTINUOUS
10
1.5089332677165355
20
2.6092403543307086
11
1.5091113385826771
21
2.610250275590551
0
LINE
8
BLACK
6
CONTINUOUS
10
1.5091113385826771
20
2.610250275590551
11
1.5092248031496063
21
2.6103855511811025
0
LINE
8
BLACK
6
CONTINUOUS
10
1.5092248031496063
20
2.6103855511811025
11
1.5092449999999999
21
2.6105608661417321
0
LINE
8
BLACK
6
CONTINUOUS
10
1.5092449999999999
20
2.6105608661417321
11
1.5111197637795275
21
2.6143103937007872
0
LINE
8
BLACK
6
CONTINUOUS
10
1.5111197637795275
20
2.6143103937007872
11
1.5116456692913385
21
2.6150194881889761
0
LINE
8
BLACK
6
CONTINUOUS
10
1.5116456692913385
20
2.6150194881889761
11
1.5116728740157479
21
2.6150777952755906
0
LINE
8
BLACK
6
CONTINUOUS
10
1.5116728740157479
20
2.6150777952755906
11
1.5135476377952755
21
2.6169525590551181
0
LINE
8
BLACK
6
CONTINUOUS
10
1.5135476377952755
20
2.6169525590551181
11
1.5142707086614173
21
2.6174588582677165
0
LINE
8
BLACK
6
CONTINUOUS
10
1.5142707086614173
20
2.6174588582677165
11
1.5143150393700786
21
2.6175056692913383
0
LINE
8
BLACK
6
CONTINUOUS
10
1.5143150393700786
20
2.6175056692913383
11
1.5180645669291337
21
2.6193804330708659
0
LINE
8
BLACK
6
CONTINUOUS
10
1.5180645669291337
20
2.6193804330708659
11
1.5190474803149605
21
2.6196727952755903
0
LINE
8
BLACK
6
CONTINUOUS
10
1.5190474803149605
20
2.6196727952755903
11
1.5192191732283464
21
2.6196318110236221
0
LINE
8
BLACK
6
CONTINUOUS
10
1.5192191732283464
20
2.6196318110236221
11
1.5193850787401575
21
2.6196921653543308
0
LINE
8
BLACK
6
CONTINUOUS
10
1.5193850787401575
20
2.6196921653543308
11
1.5268841338582677
21
2.6196921653543308
0
LINE
8
BLACK
6
CONTINUOUS
10
1.5268841338582677
20
2.6196921653543308
11
1.5278940551181102
21
2.6195140944881889
0
LINE
8
BLACK
6
CONTINUOUS
10
1.5173846456692912
20
2.6124379133858269
11
1.5161875196850394
21
2.6112407874015746
0
LINE
8
BLACK
6
CONTINUOUS
10
1.5161875196850394
20
2.6112407874015746
11
1.5148387795275591
21
2.608543307086614
0
LINE
8
BLACK
6
CONTINUOUS
10
1.5148387795275591
20
2.608543307086614
11
1.5148387795275591
21
2.6005635826771654
0
LINE
8
BLACK
6
CONTINUOUS
10
1.5148387795275591
20
2.6005635826771654
11
1.5161875196850394
21
2.5978661023622047
0
LINE
8
BLACK
6
CONTINUOUS
10
1.5161875196850394
20
2.5978661023622047
11
1.5173846456692912
21
2.5966689763779529
0
LINE
8
BLACK
6
CONTINUOUS
10
1.5173846456692912
20
2.5966689763779529
11
1.5200821259842519
21
2.5953202362204726
0
LINE
8
BLACK
6
CONTINUOUS
10
1.5200821259842519
20
2.5953202362204726
11
1.5261870866141731
21
2.5953202362204726
0
LINE
8
BLACK
6
CONTINUOUS
10
1.5261870866141731
20
2.5953202362204726
11
1.5288845669291338
21
2.5966689763779529
0
LINE
8
BLACK
6
CONTINUOUS
10
1.5288845669291338
20
2.5966689763779529
11
1.5300816929133858
21
2.5978661023622047
0
LINE
8
BLACK
6
CONTINUOUS
10
1.5300816929133858
20
2.5978661023622047
11
1.5314304330708661
21
2.6005635826771654
0
LINE
8
BLACK
6
CONTINUOUS
10
1.5314304330708661
20
2.6005635826771654
11
1.5314304330708661
21
2.608543307086614
0
LINE
8
BLACK
6
CONTINUOUS
10
1.5314304330708661
20
2.608543307086614
11
1.5300816929133858
21
2.6112407874015746
0
LINE
8
BLACK
6
CONTINUOUS
10
1.5300816929133858
20
2.6112407874015746
11
1.5288845669291338
21
2.6124379133858269
0
LINE
8
BLACK
6
CONTINUOUS
10
1.5288845669291338
20
2.6124379133858269
11
1.5261870866141731
21
2.6137866535433072
0
LINE
8
BLACK
6
CONTINUOUS
10
1.5261870866141731
20
2.6137866535433072
11
1.5200821259842519
21
2.6137866535433072
0
LINE
8
BLACK
6
CONTINUOUS
10
1.5200821259842519
20
2.6137866535433072
11
1.5173846456692912
21
2.6124379133858269
0
LINE
8
BLACK
6
CONTINUOUS
10
1.5691388976377953
20
2.6195140944881889
11
1.5706861417322835
21
2.6182157874015748
0
LINE
8
BLACK
6
CONTINUOUS
10
1.5706861417322835
20
2.6182157874015748
11
1.5710368897637794
21
2.6162266535433072
0
LINE
8
BLACK
6
CONTINUOUS
10
1.5710368897637794
20
2.6162266535433072
11
1.570026968503937
21
2.6144774803149606
0
LINE
8
BLACK
6
CONTINUOUS
10
1.570026968503937
20
2.6144774803149606
11
1.5681289763779527
21
2.6137866535433072
0
LINE
8
BLACK
6
CONTINUOUS
10
1.5681289763779527
20
2.6137866535433072
11
1.561326968503937
21
2.6137866535433072
0
LINE
8
BLACK
6
CONTINUOUS
10
1.561326968503937
20
2.6137866535433072
11
1.5586294881889764
21
2.6124379133858269
0
LINE
8
BLACK
6
CONTINUOUS
10
1.5586294881889764
20
2.6124379133858269
11
1.5573002755905512
21
2.6111087401574804
0
LINE
8
BLACK
6
CONTINUOUS
10
1.5573002755905512
20
2.6111087401574804
11
1.553996653543307
21
2.6061532677165355
0
LINE
8
BLACK
6
CONTINUOUS
10
1.553996653543307
20
2.6061532677165355
11
1.5532673622047244
21
2.6032360629921261
0
LINE
8
BLACK
6
CONTINUOUS
10
1.5532673622047244
20
2.6032360629921261
11
1.5555598818897638
21
2.6043823228346454
0
LINE
8
BLACK
6
CONTINUOUS
10
1.5555598818897638
20
2.6043823228346454
11
1.5565427952755906
21
2.6046746850393698
0
LINE
8
BLACK
6
CONTINUOUS
10
1.5565427952755906
20
2.6046746850393698
11
1.5567144881889763
21
2.6046337007874016
0
LINE
8
BLACK
6
CONTINUOUS
10
1.5567144881889763
20
2.6046337007874016
11
1.5568803937007873
21
2.6046940551181104
0
LINE
8
BLACK
6
CONTINUOUS
10
1.5568803937007873
20
2.6046940551181104
11
1.5643794488188976
21
2.6046940551181104
0
LINE
8
BLACK
6
CONTINUOUS
10
1.5643794488188976
20
2.6046940551181104
11
1.56538937007874
21
2.6045159842519685
0
LINE
8
BLACK
6
CONTINUOUS
10
1.56538937007874
20
2.6045159842519685
11
1.5655246062992125
21
2.6044025196850393
0
LINE
8
BLACK
6
CONTINUOUS
10
1.5655246062992125
20
2.6044025196850393
11
1.5656999606299211
21
2.6043823228346454
0
LINE
8
BLACK
6
CONTINUOUS
10
1.5656999606299211
20
2.6043823228346454
11
1.5694494881889764
21
2.6025075590551179
0
LINE
8
BLACK
6
CONTINUOUS
10
1.5694494881889764
20
2.6025075590551179
11
1.5701585433070866
21
2.6019816535433069
0
LINE
8
BLACK
6
CONTINUOUS
10
1.5701585433070866
20
2.6019816535433069
11
1.5702168897637796
21
2.6019544488188977
0
LINE
8
BLACK
6
CONTINUOUS
10
1.5702168897637796
20
2.6019544488188977
11
1.5720916535433072
21
2.6000796850393701
0
LINE
8
BLACK
6
CONTINUOUS
10
1.5720916535433072
20
2.6000796850393701
11
1.5725979133858268
21
2.5993566141732285
0
LINE
8
BLACK
6
CONTINUOUS
10
1.5725979133858268
20
2.5993566141732285
11
1.5726447637795276
21
2.5993122834645668
0
LINE
8
BLACK
6
CONTINUOUS
10
1.5726447637795276
20
2.5993122834645668
11
1.5745195275590551
21
2.5955627559055117
0
LINE
8
BLACK
6
CONTINUOUS
10
1.5745195275590551
20
2.5955627559055117
11
1.5748118897637795
21
2.5945798425196851
0
LINE
8
BLACK
6
CONTINUOUS
10
1.5748118897637795
20
2.5945798425196851
11
1.5747708661417323
21
2.594408149606299
0
LINE
8
BLACK
6
CONTINUOUS
10
1.5747708661417323
20
2.594408149606299
11
1.5748312598425196
21
2.5942422440944881
0
LINE
8
BLACK
6
CONTINUOUS
10
1.5748312598425196
20
2.5942422440944881
11
1.5748312598425196
21
2.5848684251968503
0
LINE
8
BLACK
6
CONTINUOUS
10
1.5748312598425196
20
2.5848684251968503
11
1.574653188976378
21
2.5838585039370079
0
LINE
8
BLACK
6
CONTINUOUS
10
1.574653188976378
20
2.5838585039370079
11
1.57453968503937
21
2.5837232677165352
0
LINE
8
BLACK
6
CONTINUOUS
10
1.57453968503937
20
2.5837232677165352
11
1.5745195275590551
21
2.5835479133858268
0
LINE
8
BLACK
6
CONTINUOUS
10
1.5745195275590551
20
2.5835479133858268
11
1.5726447637795276
21
2.5797983858267717
0
LINE
8
BLACK
6
CONTINUOUS
10
1.5726447637795276
20
2.5797983858267717
11
1.5721188188976378
21
2.5790893307086615
0
LINE
8
BLACK
6
CONTINUOUS
10
1.5721188188976378
20
2.5790893307086615
11
1.5720916535433072
21
2.5790309842519683
0
LINE
8
BLACK
6
CONTINUOUS
10
1.5720916535433072
20
2.5790309842519683
11
1.5702169291338581
21
2.5771562204724408
0
LINE
8
BLACK
6
CONTINUOUS
10
1.5702169291338581
20
2.5771562204724408
11
1.5694937401574802
21
2.5766498425196849
0
LINE
8
BLACK
6
CONTINUOUS
10
1.5694937401574802
20
2.5766498425196849
11
1.5694494881889764
21
2.5766030708661418
0
LINE
8
BLACK
6
CONTINUOUS
10
1.5694494881889764
20
2.5766030708661418
11
1.5656999606299211
21
2.5747283070866143
0
LINE
8
BLACK
6
CONTINUOUS
10
1.5656999606299211
20
2.5747283070866143
11
1.5647170078740158
21
2.5744359448818899
0
LINE
8
BLACK
6
CONTINUOUS
10
1.5647170078740158
20
2.5744359448818899
11
1.5645453149606299
21
2.5744769685039368
0
LINE
8
BLACK
6
CONTINUOUS
10
1.5645453149606299
20
2.5744769685039368
11
1.5643794488188976
21
2.5744165748031493
0
LINE
8
BLACK
6
CONTINUOUS
10
1.5643794488188976
20
2.5744165748031493
11
1.5568803937007873
21
2.5744165748031493
0
LINE
8
BLACK
6
CONTINUOUS
10
1.5568803937007873
20
2.5744165748031493
11
1.5558704724409449
21
2.5745946456692912
0
LINE
8
BLACK
6
CONTINUOUS
10
1.5558704724409449
20
2.5745946456692912
11
1.5557351968503936
21
2.5747081496062991
0
LINE
8
BLACK
6
CONTINUOUS
10
1.5557351968503936
20
2.5747081496062991
11
1.5555598818897638
21
2.5747283070866143
0
LINE
8
BLACK
6
CONTINUOUS
10
1.5555598818897638
20
2.5747283070866143
11
1.5518103543307087
21
2.5766030708661418
0
LINE
8
BLACK
6
CONTINUOUS
10
1.5518103543307087
20
2.5766030708661418
11
1.5511012204724408
21
2.5771290551181103
0
LINE
8
BLACK
6
CONTINUOUS
10
1.5511012204724408
20
2.5771290551181103
11
1.5510429133858268
21
2.5771562204724408
0
LINE
8
BLACK
6
CONTINUOUS
10
1.5510429133858268
20
2.5771562204724408
11
1.5491681496062992
21
2.5790310236220471
0
LINE
8
BLACK
6
CONTINUOUS
10
1.5491681496062992
20
2.5790310236220471
11
1.5486618503937009
21
2.5797540944881887
0
LINE
8
BLACK
6
CONTINUOUS
10
1.5486618503937009
20
2.5797540944881887
11
1.5486150787401574
21
2.5797983858267717
0
LINE
8
BLACK
6
CONTINUOUS
10
1.5486150787401574
20
2.5797983858267717
11
1.5467403149606298
21
2.5835479133858268
0
LINE
8
BLACK
6
CONTINUOUS
10
1.5467403149606298
20
2.5835479133858268
11
1.5464479527559054
21
2.5845308661417321
0
LINE
8
BLACK
6
CONTINUOUS
10
1.5464479527559054
20
2.5845308661417321
11
1.546488937007874
21
2.5847025590551183
0
LINE
8
BLACK
6
CONTINUOUS
10
1.546488937007874
20
2.5847025590551183
11
1.5464285826771653
21
2.5848684251968503
0
LINE
8
BLACK
6
CONTINUOUS
10
1.5464285826771653
20
2.5848684251968503
11
1.5464285826771653
21
2.5998665354330708
0
LINE
8
BLACK
6
CONTINUOUS
10
1.5464285826771653
20
2.5998665354330708
11
1.546530905511811
21
2.6004469291338581
0
LINE
8
BLACK
6
CONTINUOUS
10
1.546530905511811
20
2.6004469291338581
11
1.5465167322834645
21
2.6005826771653542
0
LINE
8
BLACK
6
CONTINUOUS
10
1.5465167322834645
20
2.6005826771653542
11
1.5483914960629921
21
2.6080817322834644
0
LINE
8
BLACK
6
CONTINUOUS
10
1.5483914960629921
20
2.6080817322834644
11
1.5487951968503937
21
2.6089869291338581
0
LINE
8
BLACK
6
CONTINUOUS
10
1.5487951968503937
20
2.6089869291338581
11
1.5487992519685039
21
2.6090035039370076
0
LINE
8
BLACK
6
CONTINUOUS
10
1.5487992519685039
20
2.6090035039370076
11
1.552548779527559
21
2.6146277952755903
0
LINE
8
BLACK
6
CONTINUOUS
10
1.552548779527559
20
2.6146277952755903
11
1.5528595669291338
21
2.614953188976378
0
LINE
8
BLACK
6
CONTINUOUS
10
1.5528595669291338
20
2.614953188976378
11
1.5529177165354331
21
2.6150777952755906
0
LINE
8
BLACK
6
CONTINUOUS
10
1.5529177165354331
20
2.6150777952755906
11
1.5547924803149606
21
2.6169525590551181
0
LINE
8
BLACK
6
CONTINUOUS
10
1.5547924803149606
20
2.6169525590551181
11
1.5555155511811023
21
2.6174588582677165
0
LINE
8
BLACK
6
CONTINUOUS
10
1.5555155511811023
20
2.6174588582677165
11
1.5555598818897638
21
2.6175056692913383
0
LINE
8
BLACK
6
CONTINUOUS
10
1.5555598818897638
20
2.6175056692913383
11
1.5593094094488189
21
2.6193804330708659
0
LINE
8
BLACK
6
CONTINUOUS
10
1.5593094094488189
20
2.6193804330708659
11
1.5602923228346457
21
2.6196727952755903
0
LINE
8
BLACK
6
CONTINUOUS
10
1.5602923228346457
20
2.6196727952755903
11
1.5604640157480314
21
2.6196318110236221
0
LINE
8
BLACK
6
CONTINUOUS
10
1.5604640157480314
20
2.6196318110236221
11
1.5606299212598425
21
2.6196921653543308
0
LINE
8
BLACK
6
CONTINUOUS
10
1.5606299212598425
20
2.6196921653543308
11
1.5681289763779527
21
2.6196921653543308
0
LINE
8
BLACK
6
CONTINUOUS
10
1.5681289763779527
20
2.6196921653543308
11
1.5691388976377953
21
2.6195140944881889
0
LINE
8
BLACK
6
CONTINUOUS
10
1.5548799606299213
20
2.5974398031496064
11
1.5536828346456693
21
2.5962426771653542
0
LINE
8
BLACK
6
CONTINUOUS
10
1.5536828346456693
20
2.5962426771653542
11
1.5523340944881889
21
2.5935451968503935
0
LINE
8
BLACK
6
CONTINUOUS
10
1.5523340944881889
20
2.5935451968503935
11
1.5523340944881889
21
2.5855654724409449
0
LINE
8
BLACK
6
CONTINUOUS
10
1.5523340944881889
20
2.5855654724409449
11
1.5536828346456693
21
2.5828679921259843
0
LINE
8
BLACK
6
CONTINUOUS
10
1.5536828346456693
20
2.5828679921259843
11
1.5548799606299213
21
2.5816708267716533
0
LINE
8
BLACK
6
CONTINUOUS
10
1.5548799606299213
20
2.5816708267716533
11
1.5575774409448819
21
2.5803220866141729
0
LINE
8
BLACK
6
CONTINUOUS
10
1.5575774409448819
20
2.5803220866141729
11
1.5636824015748032
21
2.5803220866141729
0
LINE
8
BLACK
6
CONTINUOUS
10
1.5636824015748032
20
2.5803220866141729
11
1.5663798425196851
21
2.5816708267716533
0
LINE
8
BLACK
6
CONTINUOUS
10
1.5663798425196851
20
2.5816708267716533
11
1.5675769685039369
21
2.5828679921259843
0
LINE
8
BLACK
6
CONTINUOUS
10
1.5675769685039369
20
2.5828679921259843
11
1.568925748031496
21
2.5855654724409449
0
LINE
8
BLACK
6
CONTINUOUS
10
1.568925748031496
20
2.5855654724409449
11
1.568925748031496
21
2.5935451968503935
0
LINE
8
BLACK
6
CONTINUOUS
10
1.568925748031496
20
2.5935451968503935
11
1.5675770078740157
21
2.5962426771653542
0
LINE
8
BLACK
6
CONTINUOUS
10
1.5675770078740157
20
2.5962426771653542
11
1.5663798818897638
21
2.5974398031496064
0
LINE
8
BLACK
6
CONTINUOUS
10
1.5663798818897638
20
2.5974398031496064
11
1.5636824015748032
21
2.5987885433070868
0
LINE
8
BLACK
6
CONTINUOUS
10
1.5636824015748032
20
2.5987885433070868
11
1.5575774409448819
21
2.5987885433070868
0
LINE
8
BLACK
6
CONTINUOUS
10
1.5575774409448819
20
2.5987885433070868
11
1.5548799606299213
21
2.5974398031496064
0
LINE
8
BLACK
6
CONTINUOUS
10
1.6010099212598425
20
2.6195140944881889
11
1.6011451574803148
21
2.6194006299212598
0
LINE
8
BLACK
6
CONTINUOUS
10
1.6011451574803148
20
2.6194006299212598
11
1.6013205118110236
21
2.6193804330708659
0
LINE
8
BLACK
6
CONTINUOUS
10
1.6013205118110236
20
2.6193804330708659
11
1.6050700393700787
21
2.6175056692913383
0
LINE
8
BLACK
6
CONTINUOUS
10
1.6050700393700787
20
2.6175056692913383
11
1.6057790944881889
21
2.6169797637795273
0
LINE
8
BLACK
6
CONTINUOUS
10
1.6057790944881889
20
2.6169797637795273
11
1.6058374409448819
21
2.6169525590551181
0
LINE
8
BLACK
6
CONTINUOUS
10
1.6058374409448819
20
2.6169525590551181
11
1.6077122047244095
21
2.6150777952755906
0
LINE
8
BLACK
6
CONTINUOUS
10
1.6077122047244095
20
2.6150777952755906
11
1.6082184645669291
21
2.6143547244094489
0
LINE
8
BLACK
6
CONTINUOUS
10
1.6082184645669291
20
2.6143547244094489
11
1.6082653149606299
21
2.6143103937007872
0
LINE
8
BLACK
6
CONTINUOUS
10
1.6082653149606299
20
2.6143103937007872
11
1.6101400787401574
21
2.6105608661417321
0
LINE
8
BLACK
6
CONTINUOUS
10
1.6101400787401574
20
2.6105608661417321
11
1.6102853543307085
21
2.6100724409448817
0
LINE
8
BLACK
6
CONTINUOUS
10
1.6102853543307085
20
2.6100724409448817
11
1.6103636614173229
21
2.609956496062992
0
LINE
8
BLACK
6
CONTINUOUS
10
1.6103636614173229
20
2.609956496062992
11
1.6122384251968505
21
2.6024574409448817
0
LINE
8
BLACK
6
CONTINUOUS
10
1.6122384251968505
20
2.6024574409448817
11
1.6122798818897637
21
2.6018695669291336
0
LINE
8
BLACK
6
CONTINUOUS
10
1.6122798818897637
20
2.6018695669291336
11
1.6123265748031497
21
2.6017412992125983
0
LINE
8
BLACK
6
CONTINUOUS
10
1.6123265748031497
20
2.6017412992125983
11
1.6123265748031497
21
2.5923674803149606
0
LINE
8
BLACK
6
CONTINUOUS
10
1.6123265748031497
20
2.5923674803149606
11
1.6122242125984252
21
2.591787125984252
0
LINE
8
BLACK
6
CONTINUOUS
10
1.6122242125984252
20
2.591787125984252
11
1.6122384251968505
21
2.5916513385826772
0
LINE
8
BLACK
6
CONTINUOUS
10
1.6122384251968505
20
2.5916513385826772
11
1.6103636614173229
21
2.5841522834645669
0
LINE
8
BLACK
6
CONTINUOUS
10
1.6103636614173229
20
2.5841522834645669
11
1.6101560629921259
21
2.5836868503937009
0
LINE
8
BLACK
6
CONTINUOUS
10
1.6101560629921259
20
2.5836868503937009
11
1.6101400787401574
21
2.5835479133858268
0
LINE
8
BLACK
6
CONTINUOUS
10
1.6101400787401574
20
2.5835479133858268
11
1.6082653149606299
21
2.5797983858267717
0
LINE
8
BLACK
6
CONTINUOUS
10
1.6082653149606299
20
2.5797983858267717
11
1.6077393700787401
21
2.5790893307086615
0
LINE
8
BLACK
6
CONTINUOUS
10
1.6077393700787401
20
2.5790893307086615
11
1.6077122047244095
21
2.5790309842519683
0
LINE
8
BLACK
6
CONTINUOUS
10
1.6077122047244095
20
2.5790309842519683
11
1.6058374803149607
21
2.5771562204724408
0
LINE
8
BLACK
6
CONTINUOUS
10
1.6058374803149607
20
2.5771562204724408
11
1.6051142913385827
21
2.5766498425196849
0
LINE
8
BLACK
6
CONTINUOUS
10
1.6051142913385827
20
2.5766498425196849
11
1.6050700393700787
21
2.5766030708661418
0
LINE
8
BLACK
6
CONTINUOUS
10
1.6050700393700787
20
2.5766030708661418
11
1.6013205118110236
21
2.5747283070866143
0
LINE
8
BLACK
6
CONTINUOUS
10
1.6013205118110236
20
2.5747283070866143
11
1.6003375590551181
21
2.5744359448818899
0
LINE
8
BLACK
6
CONTINUOUS
10
1.6003375590551181
20
2.5744359448818899
11
1.6001658661417322
21
2.5744769685039368
0
LINE
8
BLACK
6
CONTINUOUS
10
1.6001658661417322
20
2.5744769685039368
11
1.5999999999999999
21
2.5744165748031493
0
LINE
8
BLACK
6
CONTINUOUS
10
1.5999999999999999
20
2.5744165748031493
11
1.5962504724409448
21
2.5744165748031493
0
LINE
8
BLACK
6
CONTINUOUS
10
1.5962504724409448
20
2.5744165748031493
11
1.5952405511811023
21
2.5745946456692912
0
LINE
8
BLACK
6
CONTINUOUS
10
1.5952405511811023
20
2.5745946456692912
11
1.595105275590551
21
2.5747081496062991
0
LINE
8
BLACK
6
CONTINUOUS
10
1.595105275590551
20
2.5747081496062991
11
1.5949299606299212
21
2.5747283070866143
0
LINE
8
BLACK
6
CONTINUOUS
10
1.5949299606299212
20
2.5747283070866143
11
1.5911804330708661
21
2.5766030708661418
0
LINE
8
BLACK
6
CONTINUOUS
10
1.5911804330708661
20
2.5766030708661418
11
1.5904712992125984
21
2.5771290551181103
0
LINE
8
BLACK
6
CONTINUOUS
10
1.5904712992125984
20
2.5771290551181103
11
1.5904129921259842
21
2.5771562204724408
0
LINE
8
BLACK
6
CONTINUOUS
10
1.5904129921259842
20
2.5771562204724408
11
1.5885382283464566
21
2.5790310236220471
0
LINE
8
BLACK
6
CONTINUOUS
10
1.5885382283464566
20
2.5790310236220471
11
1.5880319291338583
21
2.5797540944881887
0
LINE
8
BLACK
6
CONTINUOUS
10
1.5880319291338583
20
2.5797540944881887
11
1.587985157480315
21
2.5797983858267717
0
LINE
8
BLACK
6
CONTINUOUS
10
1.587985157480315
20
2.5797983858267717
11
1.5861103937007874
21
2.5835479133858268
0
LINE
8
BLACK
6
CONTINUOUS
10
1.5861103937007874
20
2.5835479133858268
11
1.5859650787401574
21
2.584036377952756
0
LINE
8
BLACK
6
CONTINUOUS
10
1.5859650787401574
20
2.584036377952756
11
1.5858868110236219
21
2.5841522834645669
0
LINE
8
BLACK
6
CONTINUOUS
10
1.5858868110236219
20
2.5841522834645669
11
1.5840120472440944
21
2.5916513385826772
0
LINE
8
BLACK
6
CONTINUOUS
10
1.5840120472440944
20
2.5916513385826772
11
1.5839705511811024
21
2.592239251968504
0
LINE
8
BLACK
6
CONTINUOUS
10
1.5839705511811024
20
2.592239251968504
11
1.5839238976377952
21
2.5923674803149606
0
LINE
8
BLACK
6
CONTINUOUS
10
1.5839238976377952
20
2.5923674803149606
11
1.5839238976377952
21
2.6017412992125983
0
LINE
8
BLACK
6
CONTINUOUS
10
1.5839238976377952
20
2.6017412992125983
11
1.5840262204724409
21
2.6023216929133857
0
LINE
8
BLACK
6
CONTINUOUS
10
1.5840262204724409
20
2.6023216929133857
11
1.5840120472440944
21
2.6024574409448817
0
LINE
8
BLACK
6
CONTINUOUS
10
1.5840120472440944
20
2.6024574409448817
11
1.5858868110236219
21
2.609956496062992
0
LINE
8
BLACK
6
CONTINUOUS
10
1.5858868110236219
20
2.609956496062992
11
1.5860943700787402
21
2.6104219685039372
0
LINE
8
BLACK
6
CONTINUOUS
10
1.5860943700787402
20
2.6104219685039372
11
1.5861103937007874
21
2.6105608661417321
0
LINE
8
BLACK
6
CONTINUOUS
10
1.5861103937007874
20
2.6105608661417321
11
1.587985157480315
21
2.6143103937007872
0
LINE
8
BLACK
6
CONTINUOUS
10
1.587985157480315
20
2.6143103937007872
11
1.588511062992126
21
2.6150194881889761
0
LINE
8
BLACK
6
CONTINUOUS
10
1.588511062992126
20
2.6150194881889761
11
1.5885382677165354
21
2.6150777952755906
0
LINE
8
BLACK
6
CONTINUOUS
10
1.5885382677165354
20
2.6150777952755906
11
1.5904130314960629
21
2.6169525590551181
0
LINE
8
BLACK
6
CONTINUOUS
10
1.5904130314960629
20
2.6169525590551181
11
1.5911361023622046
21
2.6174588582677165
0
LINE
8
BLACK
6
CONTINUOUS
10
1.5911361023622046
20
2.6174588582677165
11
1.5911804330708661
21
2.6175056692913383
0
LINE
8
BLACK
6
CONTINUOUS
10
1.5911804330708661
20
2.6175056692913383
11
1.5949299606299212
21
2.6193804330708659
0
LINE
8
BLACK
6
CONTINUOUS
10
1.5949299606299212
20
2.6193804330708659
11
1.595912874015748
21
2.6196727952755903
0
LINE
8
BLACK
6
CONTINUOUS
10
1.595912874015748
20
2.6196727952755903
11
1.5960845669291339
21
2.6196318110236221
0
LINE
8
BLACK
6
CONTINUOUS
10
1.5960845669291339
20
2.6196318110236221
11
1.5962504724409448
21
2.6196921653543308
0
LINE
8
BLACK
6
CONTINUOUS
10
1.5962504724409448
20
2.6196921653543308
11
1.5999999999999999
21
2.6196921653543308
0
LINE
8
BLACK
6
CONTINUOUS
10
1.5999999999999999
20
2.6196921653543308
11
1.6010099212598425
21
2.6195140944881889
0
LINE
8
BLACK
6
CONTINUOUS
10
1.5942500393700787
20
2.6124379133858269
11
1.5930529133858267
21
2.6112407874015746
0
LINE
8
BLACK
6
CONTINUOUS
10
1.5930529133858267
20
2.6112407874015746
11
1.5915374015748032
21
2.6082098031496064
0
LINE
8
BLACK
6
CONTINUOUS
10
1.5915374015748032
20
2.6082098031496064
11
1.5898294094488188
21
2.6013777559055118
0
LINE
8
BLACK
6
CONTINUOUS
10
1.5898294094488188
20
2.6013777559055118
11
1.5898294094488188
21
2.5927310236220471
0
LINE
8
BLACK
6
CONTINUOUS
10
1.5898294094488188
20
2.5927310236220471
11
1.5915374015748032
21
2.5858989763779525
0
LINE
8
BLACK
6
CONTINUOUS
10
1.5915374015748032
20
2.5858989763779525
11
1.5930529133858267
21
2.5828679921259843
0
LINE
8
BLACK
6
CONTINUOUS
10
1.5930529133858267
20
2.5828679921259843
11
1.5942500393700787
21
2.5816708267716533
0
LINE
8
BLACK
6
CONTINUOUS
10
1.5942500393700787
20
2.5816708267716533
11
1.5969475196850393
21
2.5803220866141729
0
LINE
8
BLACK
6
CONTINUOUS
10
1.5969475196850393
20
2.5803220866141729
11
1.5993029527559055
21
2.5803220866141729
0
LINE
8
BLACK
6
CONTINUOUS
10
1.5993029527559055
20
2.5803220866141729
11
1.6020003937007874
21
2.5816708267716533
0
LINE
8
BLACK
6
CONTINUOUS
10
1.6020003937007874
20
2.5816708267716533
11
1.6031975196850394
21
2.5828679921259843
0
LINE
8
BLACK
6
CONTINUOUS
10
1.6031975196850394
20
2.5828679921259843
11
1.6047130314960629
21
2.5858989763779525
0
LINE
8
BLACK
6
CONTINUOUS
10
1.6047130314960629
20
2.5858989763779525
11
1.6064210629921261
21
2.5927310236220471
0
LINE
8
BLACK
6
CONTINUOUS
10
1.6064210629921261
20
2.5927310236220471
11
1.6064210629921261
21
2.6013777559055118
0
LINE
8
BLACK
6
CONTINUOUS
10
1.6064210629921261
20
2.6013777559055118
11
1.6047130314960629
21
2.6082098031496064
0
LINE
8
BLACK
6
CONTINUOUS
10
1.6047130314960629
20
2.6082098031496064
11
1.6031975590551182
21
2.6112407874015746
0
LINE
8
BLACK
6
CONTINUOUS
10
1.6031975590551182
20
2.6112407874015746
11
1.6020004330708661
21
2.6124379133858269
0
LINE
8
BLACK
6
CONTINUOUS
10
1.6020004330708661
20
2.6124379133858269
11
1.5993029527559055
21
2.6137866535433072
0
LINE
8
BLACK
6
CONTINUOUS
10
1.5993029527559055
20
2.6137866535433072
11
1.5969475196850393
21
2.6137866535433072
0
LINE
8
BLACK
6
CONTINUOUS
10
1.5969475196850393
20
2.6137866535433072
11
1.5942500393700787
21
2.6124379133858269
0
LINE
8
BLACK
6
CONTINUOUS
10
1.6385052362204724
20
2.6195140944881889
11
1.6386404724409449
21
2.6194006299212598
0
LINE
8
BLACK
6
CONTINUOUS
10
1.6386404724409449
20
2.6194006299212598
11
1.6388158267716535
21
2.6193804330708659
0
LINE
8
BLACK
6
CONTINUOUS
10
1.6388158267716535
20
2.6193804330708659
11
1.6425653543307086
21
2.6175056692913383
0
LINE
8
BLACK
6
CONTINUOUS
10
1.6425653543307086
20
2.6175056692913383
11
1.6432744094488188
21
2.6169797637795273
0
LINE
8
BLACK
6
CONTINUOUS
10
1.6432744094488188
20
2.6169797637795273
11
1.6433327559055118
21
2.6169525590551181
0
LINE
8
BLACK
6
CONTINUOUS
10
1.6433327559055118
20
2.6169525590551181
11
1.6452075196850393
21
2.6150777952755906
0
LINE
8
BLACK
6
CONTINUOUS
10
1.6452075196850393
20
2.6150777952755906
11
1.6457137795275589
21
2.6143547244094489
0
LINE
8
BLACK
6
CONTINUOUS
10
1.6457137795275589
20
2.6143547244094489
11
1.6457606299212597
21
2.6143103937007872
0
LINE
8
BLACK
6
CONTINUOUS
10
1.6457606299212597
20
2.6143103937007872
11
1.6476353937007873
21
2.6105608661417321
0
LINE
8
BLACK
6
CONTINUOUS
10
1.6476353937007873
20
2.6105608661417321
11
1.6477806692913386
21
2.6100724409448817
0
LINE
8
BLACK
6
CONTINUOUS
10
1.6477806692913386
20
2.6100724409448817
11
1.6478589763779528
21
2.609956496062992
0
LINE
8
BLACK
6
CONTINUOUS
10
1.6478589763779528
20
2.609956496062992
11
1.6497337401574803
21
2.6024574409448817
0
LINE
8
BLACK
6
CONTINUOUS
10
1.6497337401574803
20
2.6024574409448817
11
1.6497751968503938
21
2.6018695669291336
0
LINE
8
BLACK
6
CONTINUOUS
10
1.6497751968503938
20
2.6018695669291336
11
1.6498218897637795
21
2.6017412992125983
0
LINE
8
BLACK
6
CONTINUOUS
10
1.6498218897637795
20
2.6017412992125983
11
1.6498218897637795
21
2.5923674803149606
0
LINE
8
BLACK
6
CONTINUOUS
10
1.6498218897637795
20
2.5923674803149606
11
1.649719527559055
21
2.591787125984252
0
LINE
8
BLACK
6
CONTINUOUS
10
1.649719527559055
20
2.591787125984252
11
1.6497337401574803
21
2.5916513385826772
0
LINE
8
BLACK
6
CONTINUOUS
10
1.6497337401574803
20
2.5916513385826772
11
1.6478589763779528
21
2.5841522834645669
0
LINE
8
BLACK
6
CONTINUOUS
10
1.6478589763779528
20
2.5841522834645669
11
1.647651377952756
21
2.5836868503937009
0
LINE
8
BLACK
6
CONTINUOUS
10
1.647651377952756
20
2.5836868503937009
11
1.6476353937007873
21
2.5835479133858268
0
LINE
8
BLACK
6
CONTINUOUS
10
1.6476353937007873
20
2.5835479133858268
11
1.6457606299212597
21
2.5797983858267717
0
LINE
8
BLACK
6
CONTINUOUS
10
1.6457606299212597
20
2.5797983858267717
11
1.64523468503937
21
2.5790893307086615
0
LINE
8
BLACK
6
CONTINUOUS
10
1.64523468503937
20
2.5790893307086615
11
1.6452075196850393
21
2.5790309842519683
0
LINE
8
BLACK
6
CONTINUOUS
10
1.6452075196850393
20
2.5790309842519683
11
1.6433327952755905
21
2.5771562204724408
0
LINE
8
BLACK
6
CONTINUOUS
10
1.6433327952755905
20
2.5771562204724408
11
1.6426096062992126
21
2.5766498425196849
0
LINE
8
BLACK
6
CONTINUOUS
10
1.6426096062992126
20
2.5766498425196849
11
1.6425653543307086
21
2.5766030708661418
0
LINE
8
BLACK
6
CONTINUOUS
10
1.6425653543307086
20
2.5766030708661418
11
1.6388158267716535
21
2.5747283070866143
0
LINE
8
BLACK
6
CONTINUOUS
10
1.6388158267716535
20
2.5747283070866143
11
1.637832874015748
21
2.5744359448818899
0
LINE
8
BLACK
6
CONTINUOUS
10
1.637832874015748
20
2.5744359448818899
11
1.6376611811023623
21
2.5744769685039368
0
LINE
8
BLACK
6
CONTINUOUS
10
1.6376611811023623
20
2.5744769685039368
11
1.6374953149606299
21
2.5744165748031493
0
LINE
8
BLACK
6
CONTINUOUS
10
1.6374953149606299
20
2.5744165748031493
11
1.6337457874015748
21
2.5744165748031493
0
LINE
8
BLACK
6
CONTINUOUS
10
1.6337457874015748
20
2.5744165748031493
11
1.6327358661417322
21
2.5745946456692912
0
LINE
8
BLACK
6
CONTINUOUS
10
1.6327358661417322
20
2.5745946456692912
11
1.6326005905511811
21
2.5747081496062991
0
LINE
8
BLACK
6
CONTINUOUS
10
1.6326005905511811
20
2.5747081496062991
11
1.6324252755905511
21
2.5747283070866143
0
LINE
8
BLACK
6
CONTINUOUS
10
1.6324252755905511
20
2.5747283070866143
11
1.628675748031496
21
2.5766030708661418
0
LINE
8
BLACK
6
CONTINUOUS
10
1.628675748031496
20
2.5766030708661418
11
1.6279666141732283
21
2.5771290551181103
0
LINE
8
BLACK
6
CONTINUOUS
10
1.6279666141732283
20
2.5771290551181103
11
1.627908307086614
21
2.5771562204724408
0
LINE
8
BLACK
6
CONTINUOUS
10
1.627908307086614
20
2.5771562204724408
11
1.6260335433070865
21
2.5790310236220471
0
LINE
8
BLACK
6
CONTINUOUS
10
1.6260335433070865
20
2.5790310236220471
11
1.6255272440944881
21
2.5797540944881887
0
LINE
8
BLACK
6
CONTINUOUS
10
1.6255272440944881
20
2.5797540944881887
11
1.6254804724409448
21
2.5797983858267717
0
LINE
8
BLACK
6
CONTINUOUS
10
1.6254804724409448
20
2.5797983858267717
11
1.6236057086614173
21
2.5835479133858268
0
LINE
8
BLACK
6
CONTINUOUS
10
1.6236057086614173
20
2.5835479133858268
11
1.6234603937007874
21
2.584036377952756
0
LINE
8
BLACK
6
CONTINUOUS
10
1.6234603937007874
20
2.584036377952756
11
1.623382125984252
21
2.5841522834645669
0
LINE
8
BLACK
6
CONTINUOUS
10
1.623382125984252
20
2.5841522834645669
11
1.6215073622047245
21
2.5916513385826772
0
LINE
8
BLACK
6
CONTINUOUS
10
1.6215073622047245
20
2.5916513385826772
11
1.6214658661417323
21
2.592239251968504
0
LINE
8
BLACK
6
CONTINUOUS
10
1.6214658661417323
20
2.592239251968504
11
1.6214192125984253
21
2.5923674803149606
0
LINE
8
BLACK
6
CONTINUOUS
10
1.6214192125984253
20
2.5923674803149606
11
1.6214192125984253
21
2.6017412992125983
0
LINE
8
BLACK
6
CONTINUOUS
10
1.6214192125984253
20
2.6017412992125983
11
1.6215215354330708
21
2.6023216929133857
0
LINE
8
BLACK
6
CONTINUOUS
10
1.6215215354330708
20
2.6023216929133857
11
1.6215073622047245
21
2.6024574409448817
0
LINE
8
BLACK
6
CONTINUOUS
10
1.6215073622047245
20
2.6024574409448817
11
1.623382125984252
21
2.609956496062992
0
LINE
8
BLACK
6
CONTINUOUS
10
1.623382125984252
20
2.609956496062992
11
1.6235896850393701
21
2.6104219685039372
0
LINE
8
BLACK
6
CONTINUOUS
10
1.6235896850393701
20
2.6104219685039372
11
1.6236057086614173
21
2.6105608661417321
0
LINE
8
BLACK
6
CONTINUOUS
10
1.6236057086614173
20
2.6105608661417321
11
1.6254804724409448
21
2.6143103937007872
0
LINE
8
BLACK
6
CONTINUOUS
10
1.6254804724409448
20
2.6143103937007872
11
1.6260063779527558
21
2.6150194881889761
0
LINE
8
BLACK
6
CONTINUOUS
10
1.6260063779527558
20
2.6150194881889761
11
1.6260335826771652
21
2.6150777952755906
0
LINE
8
BLACK
6
CONTINUOUS
10
1.6260335826771652
20
2.6150777952755906
11
1.6279083464566928
21
2.6169525590551181
0
LINE
8
BLACK
6
CONTINUOUS
10
1.6279083464566928
20
2.6169525590551181
11
1.6286314173228347
21
2.6174588582677165
0
LINE
8
BLACK
6
CONTINUOUS
10
1.6286314173228347
20
2.6174588582677165
11
1.628675748031496
21
2.6175056692913383
0
LINE
8
BLACK
6
CONTINUOUS
10
1.628675748031496
20
2.6175056692913383
11
1.6324252755905511
21
2.6193804330708659
0
LINE
8
BLACK
6
CONTINUOUS
10
1.6324252755905511
20
2.6193804330708659
11
1.6334081889763779
21
2.6196727952755903
0
LINE
8
BLACK
6
CONTINUOUS
10
1.6334081889763779
20
2.6196727952755903
11
1.6335798818897638
21
2.6196318110236221
0
LINE
8
BLACK
6
CONTINUOUS
10
1.6335798818897638
20
2.6196318110236221
11
1.6337457874015748
21
2.6196921653543308
0
LINE
8
BLACK
6
CONTINUOUS
10
1.6337457874015748
20
2.6196921653543308
11
1.6374953149606299
21
2.6196921653543308
0
LINE
8
BLACK
6
CONTINUOUS
10
1.6374953149606299
20
2.6196921653543308
11
1.6385052362204724
21
2.6195140944881889
0
LINE
8
BLACK
6
CONTINUOUS
10
1.6317453543307086
20
2.6124379133858269
11
1.6305482283464567
21
2.6112407874015746
0
LINE
8
BLACK
6
CONTINUOUS
10
1.6305482283464567
20
2.6112407874015746
11
1.629032716535433
21
2.6082098031496064
0
LINE
8
BLACK
6
CONTINUOUS
10
1.629032716535433
20
2.6082098031496064
11
1.6273247244094489
21
2.6013777559055118
0
LINE
8
BLACK
6
CONTINUOUS
10
1.6273247244094489
20
2.6013777559055118
11
1.6273247244094489
21
2.5927310236220471
0
LINE
8
BLACK
6
CONTINUOUS
10
1.6273247244094489
20
2.5927310236220471
11
1.629032716535433
21
2.5858989763779525
0
LINE
8
BLACK
6
CONTINUOUS
10
1.629032716535433
20
2.5858989763779525
11
1.6305482283464567
21
2.5828679921259843
0
LINE
8
BLACK
6
CONTINUOUS
10
1.6305482283464567
20
2.5828679921259843
11
1.6317453543307086
21
2.5816708267716533
0
LINE
8
BLACK
6
CONTINUOUS
10
1.6317453543307086
20
2.5816708267716533
11
1.6344428346456692
21
2.5803220866141729
0
LINE
8
BLACK
6
CONTINUOUS
10
1.6344428346456692
20
2.5803220866141729
11
1.6367982677165354
21
2.5803220866141729
0
LINE
8
BLACK
6
CONTINUOUS
10
1.6367982677165354
20
2.5803220866141729
11
1.6394957086614173
21
2.5816708267716533
0
LINE
8
BLACK
6
CONTINUOUS
10
1.6394957086614173
20
2.5816708267716533
11
1.6406928346456693
21
2.5828679921259843
0
LINE
8
BLACK
6
CONTINUOUS
10
1.6406928346456693
20
2.5828679921259843
11
1.6422083464566928
21
2.5858989763779525
0
LINE
8
BLACK
6
CONTINUOUS
10
1.6422083464566928
20
2.5858989763779525
11
1.6439163779527559
21
2.5927310236220471
0
LINE
8
BLACK
6
CONTINUOUS
10
1.6439163779527559
20
2.5927310236220471
11
1.6439163779527559
21
2.6013777559055118
0
LINE
8
BLACK
6
CONTINUOUS
10
1.6439163779527559
20
2.6013777559055118
11
1.6422083464566928
21
2.6082098031496064
0
LINE
8
BLACK
6
CONTINUOUS
10
1.6422083464566928
20
2.6082098031496064
11
1.640692874015748
21
2.6112407874015746
0
LINE
8
BLACK
6
CONTINUOUS
10
1.640692874015748
20
2.6112407874015746
11
1.639495748031496
21
2.6124379133858269
0
LINE
8
BLACK
6
CONTINUOUS
10
1.639495748031496
20
2.6124379133858269
11
1.6367982677165354
21
2.6137866535433072
0
LINE
8
BLACK
6
CONTINUOUS
10
1.6367982677165354
20
2.6137866535433072
11
1.6344428346456692
21
2.6137866535433072
0
LINE
8
BLACK
6
CONTINUOUS
10
1.6344428346456692
20
2.6137866535433072
11
1.6317453543307086
21
2.6124379133858269
0
LINE
8
BLACK
6
CONTINUOUS
10
1.4953928346456693
20
2.5840033858267715
11
1.4955259055118111
21
2.5840268110236222
0
LINE
8
BLACK
6
CONTINUOUS
10
1.4955259055118111
20
2.5840268110236222
11
1.4956428346456692
21
2.5839593307086615
0
LINE
8
BLACK
6
CONTINUOUS
10
1.4956428346456692
20
2.5839593307086615
11
1.4957773622047243
21
2.5839710629921258
0
LINE
8
BLACK
6
CONTINUOUS
10
1.4957773622047243
20
2.5839710629921258
11
1.4964059055118111
21
2.5835309448818897
0
LINE
8
BLACK
6
CONTINUOUS
10
1.4964059055118111
20
2.5835309448818897
11
1.4971011023622047
21
2.5832067716535434
0
LINE
8
BLACK
6
CONTINUOUS
10
1.4971011023622047
20
2.5832067716535434
11
1.4989758267716535
21
2.5813320078740158
0
LINE
8
BLACK
6
CONTINUOUS
10
1.4989758267716535
20
2.5813320078740158
11
1.4991992125984253
21
2.5810129921259843
0
LINE
8
BLACK
6
CONTINUOUS
10
1.4991992125984253
20
2.5810129921259843
11
1.4993066929133858
21
2.5809377165354328
0
LINE
8
BLACK
6
CONTINUOUS
10
1.4993066929133858
20
2.5809377165354328
11
1.4993406299212597
21
2.5808110236220472
0
LINE
8
BLACK
6
CONTINUOUS
10
1.4993406299212597
20
2.5808110236220472
11
1.4995640551181102
21
2.5804919291338582
0
LINE
8
BLACK
6
CONTINUOUS
10
1.4995640551181102
20
2.5804919291338582
11
1.4996308661417324
21
2.5797276377952754
0
LINE
8
BLACK
6
CONTINUOUS
10
1.4996308661417324
20
2.5797276377952754
11
1.4998294094488189
21
2.5789867322834645
0
LINE
8
BLACK
6
CONTINUOUS
10
1.4998294094488189
20
2.5789867322834645
11
1.4997168110236221
21
2.5787453149606296
0
LINE
8
BLACK
6
CONTINUOUS
10
1.4997168110236221
20
2.5787453149606296
11
1.4997400393700786
21
2.5784798425196849
0
LINE
8
BLACK
6
CONTINUOUS
10
1.4997400393700786
20
2.5784798425196849
11
1.4992999999999999
21
2.5778514173228344
0
LINE
8
BLACK
6
CONTINUOUS
10
1.4992999999999999
20
2.5778514173228344
11
1.4989758267716535
21
2.577156181102362
0
LINE
8
BLACK
6
CONTINUOUS
10
1.4989758267716535
20
2.577156181102362
11
1.497101062992126
21
2.5752814173228344
0
LINE
8
BLACK
6
CONTINUOUS
10
1.497101062992126
20
2.5752814173228344
11
1.4967820078740157
21
2.5750580314960629
0
LINE
8
BLACK
6
CONTINUOUS
10
1.4967820078740157
20
2.5750580314960629
11
1.4967067716535434
21
2.5749505511811024
0
LINE
8
BLACK
6
CONTINUOUS
10
1.4967067716535434
20
2.5749505511811024
11
1.49658
21
2.5749166141732283
0
LINE
8
BLACK
6
CONTINUOUS
10
1.49658
20
2.5749166141732283
11
1.496573031496063
21
2.5749117322834647
0
LINE
8
BLACK
6
CONTINUOUS
10
1.496573031496063
20
2.5749117322834647
11
1.4964895275590551
21
2.5748121653543308
0
LINE
8
BLACK
6
CONTINUOUS
10
1.4964895275590551
20
2.5748121653543308
11
1.4964111417322834
21
2.574798346456693
0
LINE
8
BLACK
6
CONTINUOUS
10
1.4964111417322834
20
2.574798346456693
11
1.4962610236220473
21
2.5746932283464568
0
LINE
8
BLACK
6
CONTINUOUS
10
1.4962610236220473
20
2.5746932283464568
11
1.4954966929133857
21
2.5746263779527561
0
LINE
8
BLACK
6
CONTINUOUS
10
1.4954966929133857
20
2.5746263779527561
11
1.4947557874015747
21
2.574427834645669
0
LINE
8
BLACK
6
CONTINUOUS
10
1.4947557874015747
20
2.574427834645669
11
1.4946334251968503
21
2.5744848818897639
0
LINE
8
BLACK
6
CONTINUOUS
10
1.4946334251968503
20
2.5744848818897639
11
1.4945003937007875
21
2.5744614173228344
0
LINE
8
BLACK
6
CONTINUOUS
10
1.4945003937007875
20
2.5744614173228344
11
1.4943834251968504
21
2.5745289370078739
0
LINE
8
BLACK
6
CONTINUOUS
10
1.4943834251968504
20
2.5745289370078739
11
1.494248937007874
21
2.5745171653543308
0
LINE
8
BLACK
6
CONTINUOUS
10
1.494248937007874
20
2.5745171653543308
11
1.493620433070866
21
2.5749572834645669
0
LINE
8
BLACK
6
CONTINUOUS
10
1.493620433070866
20
2.5749572834645669
11
1.4929252362204724
21
2.5752814173228344
0
LINE
8
BLACK
6
CONTINUOUS
10
1.4929252362204724
20
2.5752814173228344
11
1.4910504724409448
21
2.577156181102362
0
LINE
8
BLACK
6
CONTINUOUS
10
1.4910504724409448
20
2.577156181102362
11
1.490827125984252
21
2.5774751574803147
0
LINE
8
BLACK
6
CONTINUOUS
10
1.490827125984252
20
2.5774751574803147
11
1.4907196062992125
21
2.5775504330708663
0
LINE
8
BLACK
6
CONTINUOUS
10
1.4907196062992125
20
2.5775504330708663
11
1.4906856299212599
21
2.5776772440944882
0
LINE
8
BLACK
6
CONTINUOUS
10
1.4906856299212599
20
2.5776772440944882
11
1.4904622834645669
21
2.5779962204724409
0
LINE
8
BLACK
6
CONTINUOUS
10
1.4904622834645669
20
2.5779962204724409
11
1.4903953937007874
21
2.578760472440945
0
LINE
8
BLACK
6
CONTINUOUS
10
1.4903953937007874
20
2.578760472440945
11
1.4901968897637794
21
2.5795014173228346
0
LINE
8
BLACK
6
CONTINUOUS
10
1.4901968897637794
20
2.5795014173228346
11
1.4903094488188977
21
2.5797428346456694
0
LINE
8
BLACK
6
CONTINUOUS
10
1.4903094488188977
20
2.5797428346456694
11
1.490286220472441
21
2.5800083070866142
0
LINE
8
BLACK
6
CONTINUOUS
10
1.490286220472441
20
2.5800083070866142
11
1.4907262598425197
21
2.5806368110236222
0
LINE
8
BLACK
6
CONTINUOUS
10
1.4907262598425197
20
2.5806368110236222
11
1.491050433070866
21
2.5813319685039371
0
LINE
8
BLACK
6
CONTINUOUS
10
1.491050433070866
20
2.5813319685039371
11
1.4929251968503936
21
2.5832067716535434
0
LINE
8
BLACK
6
CONTINUOUS
10
1.4929251968503936
20
2.5832067716535434
11
1.4932442519685039
21
2.5834302362204724
0
LINE
8
BLACK
6
CONTINUOUS
10
1.4932442519685039
20
2.5834302362204724
11
1.4933195275590552
21
2.5835376771653542
0
LINE
8
BLACK
6
CONTINUOUS
10
1.4933195275590552
20
2.5835376771653542
11
1.493446220472441
21
2.5835716535433071
0
LINE
8
BLACK
6
CONTINUOUS
10
1.493446220472441
20
2.5835716535433071
11
1.4934532283464566
21
2.5835765748031494
0
LINE
8
BLACK
6
CONTINUOUS
10
1.4934532283464566
20
2.5835765748031494
11
1.4935367716535433
21
2.5836760629921258
0
LINE
8
BLACK
6
CONTINUOUS
10
1.4935367716535433
20
2.5836760629921258
11
1.4936150787401574
21
2.5836898818897636
0
LINE
8
BLACK
6
CONTINUOUS
10
1.4936150787401574
20
2.5836898818897636
11
1.4937652362204723
21
2.5837949999999998
0
LINE
8
BLACK
6
CONTINUOUS
10
1.4937652362204723
20
2.5837949999999998
11
1.4945295669291339
21
2.5838618897637793
0
LINE
8
BLACK
6
CONTINUOUS
10
1.4945295669291339
20
2.5838618897637793
11
1.4952705118110237
21
2.5840603937007876
0
LINE
8
BLACK
6
CONTINUOUS
10
1.4952705118110237
20
2.5840603937007876
11
1.4953928346456693
21
2.5840033858267715
0
LINE
8
BLACK
6
CONTINUOUS
10
1.7059968110236221
20
2.6063907480314961
11
1.7061320472440944
21
2.6062772834645669
0
LINE
8
BLACK
6
CONTINUOUS
10
1.7061320472440944
20
2.6062772834645669
11
1.7063074015748032
21
2.606257086614173
0
LINE
8
BLACK
6
CONTINUOUS
10
1.7063074015748032
20
2.606257086614173
11
1.7100569291338583
21
2.6043823228346454
0
LINE
8
BLACK
6
CONTINUOUS
10
1.7100569291338583
20
2.6043823228346454
11
1.7106268503937008
21
2.6039596456692915
0
LINE
8
BLACK
6
CONTINUOUS
10
1.7106268503937008
20
2.6039596456692915
11
1.710861496062992
21
2.6040613385826772
0
LINE
8
BLACK
6
CONTINUOUS
10
1.710861496062992
20
2.6040613385826772
11
1.7111654330708661
21
2.6043823228346454
0
LINE
8
BLACK
6
CONTINUOUS
10
1.7111654330708661
20
2.6043823228346454
11
1.7149149606299212
21
2.606257086614173
0
LINE
8
BLACK
6
CONTINUOUS
10
1.7149149606299212
20
2.606257086614173
11
1.715897874015748
21
2.6065494488188974
0
LINE
8
BLACK
6
CONTINUOUS
10
1.715897874015748
20
2.6065494488188974
11
1.7160695669291339
21
2.6065084645669292
0
LINE
8
BLACK
6
CONTINUOUS
10
1.7160695669291339
20
2.6065084645669292
11
1.7162354724409448
21
2.6065688188976379
0
LINE
8
BLACK
6
CONTINUOUS
10
1.7162354724409448
20
2.6065688188976379
11
1.7218597637795274
21
2.6065688188976379
0
LINE
8
BLACK
6
CONTINUOUS
10
1.7218597637795274
20
2.6065688188976379
11
1.7228696850393701
21
2.6063907480314961
0
LINE
8
BLACK
6
CONTINUOUS
10
1.7228696850393701
20
2.6063907480314961
11
1.7230049212598424
21
2.6062772834645669
0
LINE
8
BLACK
6
CONTINUOUS
10
1.7230049212598424
20
2.6062772834645669
11
1.7231802755905512
21
2.606257086614173
0
LINE
8
BLACK
6
CONTINUOUS
10
1.7231802755905512
20
2.606257086614173
11
1.7269298425196851
21
2.6043823228346454
0
LINE
8
BLACK
6
CONTINUOUS
10
1.7269298425196851
20
2.6043823228346454
11
1.7277535039370078
21
2.6037714173228346
0
LINE
8
BLACK
6
CONTINUOUS
10
1.7277535039370078
20
2.6037714173228346
11
1.7279293307086614
21
2.603365748031496
0
LINE
8
BLACK
6
CONTINUOUS
10
1.7279293307086614
20
2.603365748031496
11
1.7282503543307086
21
2.6030618110236219
0
LINE
8
BLACK
6
CONTINUOUS
10
1.7282503543307086
20
2.6030618110236219
11
1.7301251181102362
21
2.5993122834645668
0
LINE
8
BLACK
6
CONTINUOUS
10
1.7301251181102362
20
2.5993122834645668
11
1.7304174803149606
21
2.5983293700787402
0
LINE
8
BLACK
6
CONTINUOUS
10
1.7304174803149606
20
2.5983293700787402
11
1.7303764566929134
21
2.5981576771653541
0
LINE
8
BLACK
6
CONTINUOUS
10
1.7303764566929134
20
2.5981576771653541
11
1.7304368503937007
21
2.5979917716535432
0
LINE
8
BLACK
6
CONTINUOUS
10
1.7304368503937007
20
2.5979917716535432
11
1.7304368503937007
21
2.5773693307086614
0
LINE
8
BLACK
6
CONTINUOUS
10
1.7304368503937007
20
2.5773693307086614
11
1.730258779527559
21
2.5763594094488189
0
LINE
8
BLACK
6
CONTINUOUS
10
1.730258779527559
20
2.5763594094488189
11
1.7289604724409449
21
2.5748121653543308
0
LINE
8
BLACK
6
CONTINUOUS
10
1.7289604724409449
20
2.5748121653543308
11
1.726971338582677
21
2.5744614173228344
0
LINE
8
BLACK
6
CONTINUOUS
10
1.726971338582677
20
2.5744614173228344
11
1.7252221653543307
21
2.5754713385826773
0
LINE
8
BLACK
6
CONTINUOUS
10
1.7252221653543307
20
2.5754713385826773
11
1.724531338582677
21
2.5773693307086614
0
LINE
8
BLACK
6
CONTINUOUS
10
1.724531338582677
20
2.5773693307086614
11
1.724531338582677
21
2.5972947244094486
0
LINE
8
BLACK
6
CONTINUOUS
10
1.724531338582677
20
2.5972947244094486
11
1.7234084645669292
21
2.5995404724409448
0
LINE
8
BLACK
6
CONTINUOUS
10
1.7234084645669292
20
2.5995404724409448
11
1.7211627165354331
21
2.6006633070866143
0
LINE
8
BLACK
6
CONTINUOUS
10
1.7211627165354331
20
2.6006633070866143
11
1.7169325196850393
21
2.6006633070866143
0
LINE
8
BLACK
6
CONTINUOUS
10
1.7169325196850393
20
2.6006633070866143
11
1.7146867716535432
21
2.5995404724409448
0
LINE
8
BLACK
6
CONTINUOUS
10
1.7146867716535432
20
2.5995404724409448
11
1.7135639370078739
21
2.5972947244094486
0
LINE
8
BLACK
6
CONTINUOUS
10
1.7135639370078739
20
2.5972947244094486
11
1.7135639370078739
21
2.5773693307086614
0
LINE
8
BLACK
6
CONTINUOUS
10
1.7135639370078739
20
2.5773693307086614
11
1.7133858661417323
21
2.5763594094488189
0
LINE
8
BLACK
6
CONTINUOUS
10
1.7133858661417323
20
2.5763594094488189
11
1.7120875590551181
21
2.5748121653543308
0
LINE
8
BLACK
6
CONTINUOUS
10
1.7120875590551181
20
2.5748121653543308
11
1.7100984251968503
21
2.5744614173228344
0
LINE
8
BLACK
6
CONTINUOUS
10
1.7100984251968503
20
2.5744614173228344
11
1.708349251968504
21
2.5754713385826773
0
LINE
8
BLACK
6
CONTINUOUS
10
1.708349251968504
20
2.5754713385826773
11
1.7076584251968503
21
2.5773693307086614
0
LINE
8
BLACK
6
CONTINUOUS
10
1.7076584251968503
20
2.5773693307086614
11
1.7076584251968503
21
2.5972947244094486
0
LINE
8
BLACK
6
CONTINUOUS
10
1.7076584251968503
20
2.5972947244094486
11
1.7065355511811022
21
2.5995404724409448
0
LINE
8
BLACK
6
CONTINUOUS
10
1.7065355511811022
20
2.5995404724409448
11
1.7042898425196851
21
2.6006633070866143
0
LINE
8
BLACK
6
CONTINUOUS
10
1.7042898425196851
20
2.6006633070866143
11
1.7000596456692914
21
2.6006633070866143
0
LINE
8
BLACK
6
CONTINUOUS
10
1.7000596456692914
20
2.6006633070866143
11
1.6973621653543307
21
2.599314566929134
0
LINE
8
BLACK
6
CONTINUOUS
10
1.6973621653543307
20
2.599314566929134
11
1.6966910629921259
21
2.598643464566929
0
LINE
8
BLACK
6
CONTINUOUS
10
1.6966910629921259
20
2.598643464566929
11
1.6966910629921259
21
2.5773693307086614
0
LINE
8
BLACK
6
CONTINUOUS
10
1.6966910629921259
20
2.5773693307086614
11
1.6965129921259843
21
2.5763594094488189
0
LINE
8
BLACK
6
CONTINUOUS
10
1.6965129921259843
20
2.5763594094488189
11
1.6952146850393701
21
2.5748121653543308
0
LINE
8
BLACK
6
CONTINUOUS
10
1.6952146850393701
20
2.5748121653543308
11
1.6932255511811023
21
2.5744614173228344
0
LINE
8
BLACK
6
CONTINUOUS
10
1.6932255511811023
20
2.5744614173228344
11
1.691476377952756
21
2.5754713385826773
0
LINE
8
BLACK
6
CONTINUOUS
10
1.691476377952756
20
2.5754713385826773
11
1.6907855511811023
21
2.5773693307086614
0
LINE
8
BLACK
6
CONTINUOUS
10
1.6907855511811023
20
2.5773693307086614
11
1.6907855511811023
21
2.6036160629921259
0
LINE
8
BLACK
6
CONTINUOUS
10
1.6907855511811023
20
2.6036160629921259
11
1.6909636220472442
21
2.6046259842519683
0
LINE
8
BLACK
6
CONTINUOUS
10
1.6909636220472442
20
2.6046259842519683
11
1.6922619291338583
21
2.6061732283464565
0
LINE
8
BLACK
6
CONTINUOUS
10
1.6922619291338583
20
2.6061732283464565
11
1.6942510629921259
21
2.6065239763779529
0
LINE
8
BLACK
6
CONTINUOUS
10
1.6942510629921259
20
2.6065239763779529
11
1.6960002362204725
21
2.60551405511811
0
LINE
8
BLACK
6
CONTINUOUS
10
1.6960002362204725
20
2.60551405511811
11
1.6960857874015747
21
2.6052789763779529
0
LINE
8
BLACK
6
CONTINUOUS
10
1.6960857874015747
20
2.6052789763779529
11
1.6980420866141732
21
2.606257086614173
0
LINE
8
BLACK
6
CONTINUOUS
10
1.6980420866141732
20
2.606257086614173
11
1.699025
21
2.6065494488188974
0
LINE
8
BLACK
6
CONTINUOUS
10
1.699025
20
2.6065494488188974
11
1.6991966929133857
21
2.6065084645669292
0
LINE
8
BLACK
6
CONTINUOUS
10
1.6991966929133857
20
2.6065084645669292
11
1.6993625984251968
21
2.6065688188976379
0
LINE
8
BLACK
6
CONTINUOUS
10
1.6993625984251968
20
2.6065688188976379
11
1.7049868897637794
21
2.6065688188976379
0
LINE
8
BLACK
6
CONTINUOUS
10
1.7049868897637794
20
2.6065688188976379
11
1.7059968110236221
21
2.6063907480314961
0
LINE
8
BLACK
6
CONTINUOUS
10
1.7584902362204724
20
2.6063907480314961
11
1.7586254724409449
21
2.6062772834645669
0
LINE
8
BLACK
6
CONTINUOUS
10
1.7586254724409449
20
2.6062772834645669
11
1.7588008267716535
21
2.606257086614173
0
LINE
8
BLACK
6
CONTINUOUS
10
1.7588008267716535
20
2.606257086614173
11
1.7625503543307086
21
2.6043823228346454
0
LINE
8
BLACK
6
CONTINUOUS
10
1.7625503543307086
20
2.6043823228346454
11
1.7631202755905511
21
2.6039596456692915
0
LINE
8
BLACK
6
CONTINUOUS
10
1.7631202755905511
20
2.6039596456692915
11
1.7633549212598425
21
2.6040613385826772
0
LINE
8
BLACK
6
CONTINUOUS
10
1.7633549212598425
20
2.6040613385826772
11
1.7636588582677164
21
2.6043823228346454
0
LINE
8
BLACK
6
CONTINUOUS
10
1.7636588582677164
20
2.6043823228346454
11
1.7674083858267715
21
2.606257086614173
0
LINE
8
BLACK
6
CONTINUOUS
10
1.7674083858267715
20
2.606257086614173
11
1.7683912992125983
21
2.6065494488188974
0
LINE
8
BLACK
6
CONTINUOUS
10
1.7683912992125983
20
2.6065494488188974
11
1.7685629921259842
21
2.6065084645669292
0
LINE
8
BLACK
6
CONTINUOUS
10
1.7685629921259842
20
2.6065084645669292
11
1.7687288976377953
21
2.6065688188976379
0
LINE
8
BLACK
6
CONTINUOUS
10
1.7687288976377953
20
2.6065688188976379
11
1.7743531889763779
21
2.6065688188976379
0
LINE
8
BLACK
6
CONTINUOUS
10
1.7743531889763779
20
2.6065688188976379
11
1.7753631102362204
21
2.6063907480314961
0
LINE
8
BLACK
6
CONTINUOUS
10
1.7753631102362204
20
2.6063907480314961
11
1.7754983464566929
21
2.6062772834645669
0
LINE
8
BLACK
6
CONTINUOUS
10
1.7754983464566929
20
2.6062772834645669
11
1.7756737007874015
21
2.606257086614173
0
LINE
8
BLACK
6
CONTINUOUS
10
1.7756737007874015
20
2.606257086614173
11
1.7794232677165354
21
2.6043823228346454
0
LINE
8
BLACK
6
CONTINUOUS
10
1.7794232677165354
20
2.6043823228346454
11
1.7802469291338583
21
2.6037714173228346
0
LINE
8
BLACK
6
CONTINUOUS
10
1.7802469291338583
20
2.6037714173228346
11
1.7804227559055117
21
2.603365748031496
0
LINE
8
BLACK
6
CONTINUOUS
10
1.7804227559055117
20
2.603365748031496
11
1.7807437795275589
21
2.6030618110236219
0
LINE
8
BLACK
6
CONTINUOUS
10
1.7807437795275589
20
2.6030618110236219
11
1.7826185433070865
21
2.5993122834645668
0
LINE
8
BLACK
6
CONTINUOUS
10
1.7826185433070865
20
2.5993122834645668
11
1.7829109055118111
21
2.5983293700787402
0
LINE
8
BLACK
6
CONTINUOUS
10
1.7829109055118111
20
2.5983293700787402
11
1.7828698818897637
21
2.5981576771653541
0
LINE
8
BLACK
6
CONTINUOUS
10
1.7828698818897637
20
2.5981576771653541
11
1.7829302755905512
21
2.5979917716535432
0
LINE
8
BLACK
6
CONTINUOUS
10
1.7829302755905512
20
2.5979917716535432
11
1.7829302755905512
21
2.5773693307086614
0
LINE
8
BLACK
6
CONTINUOUS
10
1.7829302755905512
20
2.5773693307086614
11
1.7827522047244093
21
2.5763594094488189
0
LINE
8
BLACK
6
CONTINUOUS
10
1.7827522047244093
20
2.5763594094488189
11
1.7814538976377952
21
2.5748121653543308
0
LINE
8
BLACK
6
CONTINUOUS
10
1.7814538976377952
20
2.5748121653543308
11
1.7794647637795276
21
2.5744614173228344
0
LINE
8
BLACK
6
CONTINUOUS
10
1.7794647637795276
20
2.5744614173228344
11
1.777715590551181
21
2.5754713385826773
0
LINE
8
BLACK
6
CONTINUOUS
10
1.777715590551181
20
2.5754713385826773
11
1.7770247637795276
21
2.5773693307086614
0
LINE
8
BLACK
6
CONTINUOUS
10
1.7770247637795276
20
2.5773693307086614
11
1.7770247637795276
21
2.5972947244094486
0
LINE
8
BLACK
6
CONTINUOUS
10
1.7770247637795276
20
2.5972947244094486
11
1.7759018897637795
21
2.5995404724409448
0
LINE
8
BLACK
6
CONTINUOUS
10
1.7759018897637795
20
2.5995404724409448
11
1.7736561417322834
21
2.6006633070866143
0
LINE
8
BLACK
6
CONTINUOUS
10
1.7736561417322834
20
2.6006633070866143
11
1.7694259448818896
21
2.6006633070866143
0
LINE
8
BLACK
6
CONTINUOUS
10
1.7694259448818896
20
2.6006633070866143
11
1.7671801968503937
21
2.5995404724409448
0
LINE
8
BLACK
6
CONTINUOUS
10
1.7671801968503937
20
2.5995404724409448
11
1.7660573622047244
21
2.5972947244094486
0
LINE
8
BLACK
6
CONTINUOUS
10
1.7660573622047244
20
2.5972947244094486
11
1.7660573622047244
21
2.5773693307086614
0
LINE
8
BLACK
6
CONTINUOUS
10
1.7660573622047244
20
2.5773693307086614
11
1.7658792913385826
21
2.5763594094488189
0
LINE
8
BLACK
6
CONTINUOUS
10
1.7658792913385826
20
2.5763594094488189
11
1.7645809842519684
21
2.5748121653543308
0
LINE
8
BLACK
6
CONTINUOUS
10
1.7645809842519684
20
2.5748121653543308
11
1.7625918503937008
21
2.5744614173228344
0
LINE
8
BLACK
6
CONTINUOUS
10
1.7625918503937008
20
2.5744614173228344
11
1.7608426771653543
21
2.5754713385826773
0
LINE
8
BLACK
6
CONTINUOUS
10
1.7608426771653543
20
2.5754713385826773
11
1.7601518503937008
21
2.5773693307086614
0
LINE
8
BLACK
6
CONTINUOUS
10
1.7601518503937008
20
2.5773693307086614
11
1.7601518503937008
21
2.5972947244094486
0
LINE
8
BLACK
6
CONTINUOUS
10
1.7601518503937008
20
2.5972947244094486
11
1.7590289763779527
21
2.5995404724409448
0
LINE
8
BLACK
6
CONTINUOUS
10
1.7590289763779527
20
2.5995404724409448
11
1.7567832677165354
21
2.6006633070866143
0
LINE
8
BLACK
6
CONTINUOUS
10
1.7567832677165354
20
2.6006633070866143
11
1.7525530708661416
21
2.6006633070866143
0
LINE
8
BLACK
6
CONTINUOUS
10
1.7525530708661416
20
2.6006633070866143
11
1.749855590551181
21
2.599314566929134
0
LINE
8
BLACK
6
CONTINUOUS
10
1.749855590551181
20
2.599314566929134
11
1.7491844881889764
21
2.598643464566929
0
LINE
8
BLACK
6
CONTINUOUS
10
1.7491844881889764
20
2.598643464566929
11
1.7491844881889764
21
2.5773693307086614
0
LINE
8
BLACK
6
CONTINUOUS
10
1.7491844881889764
20
2.5773693307086614
11
1.7490064173228346
21
2.5763594094488189
0
LINE
8
BLACK
6
CONTINUOUS
10
1.7490064173228346
20
2.5763594094488189
11
1.7477081102362204
21
2.5748121653543308
0
LINE
8
BLACK
6
CONTINUOUS
10
1.7477081102362204
20
2.5748121653543308
11
1.7457189763779528
21
2.5744614173228344
0
LINE
8
BLACK
6
CONTINUOUS
10
1.7457189763779528
20
2.5744614173228344
11
1.7439698031496063
21
2.5754713385826773
0
LINE
8
BLACK
6
CONTINUOUS
10
1.7439698031496063
20
2.5754713385826773
11
1.7432789763779528
21
2.5773693307086614
0
LINE
8
BLACK
6
CONTINUOUS
10
1.7432789763779528
20
2.5773693307086614
11
1.7432789763779528
21
2.6036160629921259
0
LINE
8
BLACK
6
CONTINUOUS
10
1.7432789763779528
20
2.6036160629921259
11
1.7434570472440944
21
2.6046259842519683
0
LINE
8
BLACK
6
CONTINUOUS
10
1.7434570472440944
20
2.6046259842519683
11
1.7447553543307086
21
2.6061732283464565
0
LINE
8
BLACK
6
CONTINUOUS
10
1.7447553543307086
20
2.6061732283464565
11
1.7467444881889764
21
2.6065239763779529
0
LINE
8
BLACK
6
CONTINUOUS
10
1.7467444881889764
20
2.6065239763779529
11
1.7484936614173228
21
2.60551405511811
0
LINE
8
BLACK
6
CONTINUOUS
10
1.7484936614173228
20
2.60551405511811
11
1.7485792125984252
21
2.6052789763779529
0
LINE
8
BLACK
6
CONTINUOUS
10
1.7485792125984252
20
2.6052789763779529
11
1.7505355118110235
21
2.606257086614173
0
LINE
8
BLACK
6
CONTINUOUS
10
1.7505355118110235
20
2.606257086614173
11
1.7515184251968503
21
2.6065494488188974
0
LINE
8
BLACK
6
CONTINUOUS
10
1.7515184251968503
20
2.6065494488188974
11
1.7516901181102362
21
2.6065084645669292
0
LINE
8
BLACK
6
CONTINUOUS
10
1.7516901181102362
20
2.6065084645669292
11
1.7518560236220473
21
2.6065688188976379
0
LINE
8
BLACK
6
CONTINUOUS
10
1.7518560236220473
20
2.6065688188976379
11
1.75748031496063
21
2.6065688188976379
0
LINE
8
BLACK
6
CONTINUOUS
10
1.75748031496063
20
2.6065688188976379
11
1.7584902362204724
21
2.6063907480314961
  0
ENDSEC
  0
EOF
